<svg width="19" height="24" viewBox="0 0 19 24" fill="none" xmlns="http://www.w3.org/2000/svg">
<path d="M12.791 14.8168C12.647 14.6809 12.4198 14.6878 12.2838 14.8313L10.6652 16.5454C10.5348 16.6838 10.5345 16.9001 10.6652 17.0386L12.2838 18.7538C12.3544 18.8287 12.4494 18.8664 12.5449 18.8664C12.6332 18.8664 12.722 18.8337 12.7911 18.7683C12.9353 18.6324 12.9421 18.4051 12.8059 18.2613L11.4201 16.7923L12.8059 15.3244C12.9414 15.1803 12.9353 14.9532 12.7911 14.8168L12.791 14.8168ZM17.3087 16.5468L15.69 14.8316C15.5543 14.6876 15.327 14.6806 15.1828 14.8166C15.0386 14.9525 15.0317 15.1798 15.1679 15.3242L16.5541 16.7931L15.1679 18.2606C15.0321 18.4051 15.0382 18.6321 15.1828 18.7681C15.2519 18.8334 15.3407 18.8663 15.429 18.8663C15.5243 18.8663 15.6192 18.8284 15.69 18.7536L17.3087 17.0395C17.4394 16.9011 17.4394 16.6853 17.3087 16.5468L17.3087 16.5468ZM14.4816 14.7512C14.2878 14.705 14.0949 14.8233 14.048 15.0156L13.2275 18.4001C13.1811 18.5927 13.2993 18.7865 13.4917 18.8334C13.5203 18.8404 13.5486 18.8438 13.5764 18.8438C13.7384 18.8438 13.885 18.7334 13.925 18.5695L14.7455 15.185C14.7928 14.9921 14.6746 14.7981 14.4816 14.7512L14.4816 14.7512ZM13.9873 11.7833C13.7145 11.7833 13.4487 11.811 13.1873 11.8534L13.1874 7.39343C13.5172 7.39327 13.7855 7.12522 13.7855 6.79524V5.22482C13.7855 4.89501 13.5172 4.62663 13.1874 4.62663V2.04457C13.1874 1.055 12.3824 0.25 11.3929 0.25H1.86965C0.880068 0.25 0.0750732 1.055 0.0750732 2.04457V21.7054C0.0750732 22.6948 0.880068 23.5 1.86965 23.5H11.3929C12.3734 23.5 13.1716 22.7092 13.1859 21.732C13.4476 21.7745 13.714 21.8026 13.9873 21.8026C16.7497 21.8026 18.9971 19.555 18.9971 16.7931C18.9969 14.031 16.7497 11.7833 13.9873 11.7833L13.9873 11.7833ZM12.4696 21.7051C12.4696 22.2985 11.9865 22.7818 11.3929 22.7818H1.86965C1.27595 22.7818 0.79295 22.2985 0.79295 21.7051V4.17813H10.6118C10.8101 4.17813 10.9707 4.01756 10.9707 3.81928C10.9707 3.621 10.8101 3.46043 10.6118 3.46043L0.79295 3.46027V2.04439C0.79295 1.45069 1.27599 0.967689 1.86965 0.967689H11.3929C11.9866 0.967689 12.4696 1.45073 12.4696 2.04439V12.0197C10.447 12.6641 8.97741 14.5596 8.97741 16.7928C8.97741 19.0257 10.447 20.9212 12.4696 21.5655V21.7051ZM13.9873 21.0844C11.6205 21.0844 9.69524 19.159 9.69524 16.7928C9.69524 14.4261 11.6206 12.5008 13.9873 12.5008C16.3537 12.5008 18.2793 14.4262 18.2793 16.7928C18.2791 19.1591 16.3537 21.0844 13.9873 21.0844ZM6.93031 19.4648C6.17091 19.4648 5.55302 20.0827 5.55302 20.8421C5.55302 21.6015 6.17091 22.2194 6.93031 22.2194C7.68971 22.2194 8.3076 21.6015 8.3076 20.8421C8.3076 20.0827 7.68971 19.4648 6.93031 19.4648ZM6.93031 21.5014C6.56662 21.5014 6.27085 21.2056 6.27085 20.8419C6.27085 20.4782 6.56661 20.1824 6.93031 20.1824C7.29401 20.1824 7.58977 20.4782 7.58977 20.8419C7.58977 21.2056 7.29401 21.5014 6.93031 21.5014ZM8.9998 1.63543C8.69469 1.63543 8.44634 1.88379 8.44634 2.18888C8.44634 2.49398 8.6947 2.74234 8.9998 2.74234C9.3049 2.74234 9.55325 2.49398 9.55325 2.18888C9.55325 1.88379 9.3049 1.63543 8.9998 1.63543ZM8.9998 2.3533C8.90917 2.3533 8.83523 2.27936 8.83523 2.18873C8.83523 2.0981 8.90917 2.02416 8.9998 2.02416C9.09043 2.02416 9.16437 2.0981 9.16437 2.18873C9.16453 2.27936 9.09059 2.3533 8.9998 2.3533Z" fill="#384DFF"/>
</svg>
