<svg width="53" height="46" viewBox="0 0 53 46" fill="none" xmlns="http://www.w3.org/2000/svg">
<g clip-path="url(#clip0_23_130)">
<path d="M8.28125 15.3411C7.40272 15.3411 6.56017 15.644 5.93896 16.1831C5.31774 16.7223 4.96875 17.4536 4.96875 18.2161V31.6294C4.96875 32.3919 5.31774 33.1231 5.93896 33.6623C6.56017 34.2015 7.40272 34.5044 8.28125 34.5044C9.15978 34.5044 10.0023 34.2015 10.6235 33.6623C11.2448 33.1231 11.5938 32.3919 11.5938 31.6294V18.2161C11.5938 17.4536 11.2448 16.7223 10.6235 16.1831C10.0023 15.644 9.15978 15.3411 8.28125 15.3411Z" fill="#4CAF50"/>
<path d="M45.8135 15.3411C44.935 15.3411 44.0925 15.644 43.4712 16.1831C42.85 16.7223 42.501 17.4536 42.501 18.2161V31.6294C42.501 32.3919 42.85 33.1231 43.4712 33.6623C44.0925 34.2015 44.935 34.5044 45.8135 34.5044C46.6921 34.5044 47.5346 34.2015 48.1558 33.6623C48.777 33.1231 49.126 32.3919 49.126 31.6294V18.2161C49.126 17.4536 48.777 16.7223 48.1558 16.1831C47.5346 15.644 46.6921 15.3411 45.8135 15.3411Z" fill="#4CAF50"/>
<path d="M39.1902 15.3411H14.9046C14.6116 15.3411 14.3306 15.4421 14.1234 15.6219C13.9163 15.8017 13.7999 16.0456 13.7999 16.2999V31.6294C13.7997 32.7337 14.2391 33.8042 15.0437 34.6597C15.8483 35.5152 16.9688 36.1033 18.2154 36.3243V43.1265C18.2154 43.889 18.5644 44.6203 19.1856 45.1594C19.8068 45.6986 20.6494 46.0015 21.5279 46.0015C22.4065 46.0015 23.249 45.6986 23.8702 45.1594C24.4914 44.6203 24.8404 43.889 24.8404 43.1265V36.4191H29.256V43.1265C29.256 43.889 29.605 44.6203 30.2262 45.1594C30.8474 45.6986 31.69 46.0015 32.5685 46.0015C33.447 46.0015 34.2896 45.6986 34.9108 45.1594C35.532 44.6203 35.881 43.889 35.881 43.1265V36.3243C37.1277 36.1033 38.2481 35.5152 39.0527 34.6597C39.8573 33.8042 40.2967 32.7337 40.2966 31.6294V16.2999C40.2966 16.1738 40.2679 16.049 40.2123 15.9326C40.1567 15.8162 40.0752 15.7104 39.9724 15.6214C39.8697 15.5323 39.7477 15.4617 39.6134 15.4136C39.4792 15.3655 39.3354 15.3409 39.1902 15.3411Z" fill="#4CAF50"/>
<path d="M35.0678 3.98192L37.7592 1.64742C37.8718 1.56194 37.9633 1.4575 38.028 1.34042C38.0927 1.22335 38.1294 1.09608 38.1358 0.966336C38.1421 0.836595 38.118 0.707085 38.065 0.585663C38.0119 0.464241 37.931 0.353436 37.8272 0.25997C37.7233 0.166505 37.5986 0.0923259 37.4607 0.0419335C37.3228 -0.00845883 37.1746 -0.0340145 37.025 -0.0331835C36.8754 -0.0323524 36.7275 -0.00515192 36.5903 0.0467682C36.4532 0.0986882 36.3297 0.174246 36.2272 0.268858L36.2023 0.287545L33.067 3.0188C31.1674 2.3026 29.1185 1.93302 27.0474 1.93302C24.9763 1.93302 22.9274 2.3026 21.0278 3.0188L17.8925 0.287545C17.6822 0.12313 17.4072 0.0350349 17.1243 0.0414345C16.8414 0.0478342 16.572 0.14824 16.3719 0.321939C16.1718 0.495638 16.0561 0.729379 16.0487 0.974942C16.0414 1.22051 16.1428 1.45916 16.3323 1.64167L19.022 3.97761C17.4088 4.90389 16.0866 6.16425 15.1749 7.64493C14.2632 9.12561 13.7907 10.78 13.7999 12.4589C13.7999 12.7132 13.9163 12.957 14.1235 13.1368C14.3306 13.3167 14.6116 13.4177 14.9046 13.4177H39.1902C39.4832 13.4177 39.7642 13.3167 39.9714 13.1368C40.1785 12.957 40.2949 12.7132 40.2949 12.4589C40.3028 10.7804 39.8291 9.12656 38.9165 7.64666C38.004 6.16676 36.6813 4.90731 35.0678 3.98192Z" fill="#4CAF50"/>
<path d="M21.5279 9.59389C22.1381 9.59389 22.6327 9.16462 22.6327 8.63508C22.6327 8.10554 22.1381 7.67627 21.5279 7.67627C20.9178 7.67627 20.4232 8.10554 20.4232 8.63508C20.4232 9.16462 20.9178 9.59389 21.5279 9.59389Z" fill="#FAFAFA"/>
<path d="M32.5668 9.59389C33.177 9.59389 33.6716 9.16462 33.6716 8.63508C33.6716 8.10554 33.177 7.67627 32.5668 7.67627C31.9567 7.67627 31.4621 8.10554 31.4621 8.63508C31.4621 9.16462 31.9567 9.59389 32.5668 9.59389Z" fill="#FAFAFA"/>
</g>
<defs>
<clipPath id="clip0_23_130">
<rect width="53" height="46" fill="white"/>
</clipPath>
</defs>
</svg>
