<svg width="50" height="50" viewBox="0 0 50 50" fill="none" xmlns="http://www.w3.org/2000/svg">
<path d="M4.717 39.1L24.546 50L44.484 38.952L48.2 8.132L24.525 0L1 8.279L4.717 39.1Z" fill="#B3B3B3"/>
<path d="M24.47 47.3951L42.391 37.4771L45.854 9.91309L24.47 2.62109V47.3951Z" fill="#A6120D"/>
<path d="M24.47 47.3951V2.62012L3.64001 10.0441L6.82501 37.6081L24.47 47.3951Z" fill="#DD1B16"/>
<path d="M30.356 26.4569L24.47 29.2089H18.27L15.354 36.5029L9.92999 36.6029L24.47 4.24292L30.356 26.4569ZM29.787 25.0709L24.509 14.6219L20.179 24.8909H24.469L29.787 25.0709Z" fill="#F2F2F2"/>
<path d="M29.42 24.8989H24.48L24.469 29.1989L31.301 29.2059L34.494 36.6059L39.684 36.7059L24.469 4.24292L24.508 14.6179L29.42 24.8989Z" fill="#B3B3B3"/>
</svg>
