<svg width="130" height="40" viewBox="0 0 130 40" fill="none" xmlns="http://www.w3.org/2000/svg">
<path d="M29.3 36.3C29.1 36.3 28.9 36.3 28.8 36.2L15.5 28.7C15.3 28.6 15.2 28.5 15.1 28.3C15.1 28.1 15 27.9 15 27.8V4.70001C15 4.60001 15 4.40001 15.1 4.30001C15.2 4.20001 15.2 4.10001 15.3 4.00001C15.4 3.90001 15.5 3.80001 15.6 3.80001C15.8 3.70001 15.9 3.70001 16 3.70001H42.6C42.7 3.70001 42.9 3.70001 43 3.80001C43.1 3.80001 43.2 3.90001 43.3 4.00001C43.4 4.10001 43.5 4.20001 43.5 4.30001C43.6 4.40001 43.6 4.60001 43.6 4.70001V27.7C43.6 27.9 43.5 28.1 43.5 28.2C43.4 28.4 43.3 28.5 43.1 28.6L29.8 36.1C29.7 36.3 29.5 36.3 29.3 36.3ZM17.1 27.2L29.3 34.1L41.5 27.2V5.80001H17.1V27.2Z" fill="black"/>
<path d="M29.3 25.9C29.1 25.9 28.9 25.9 28.8 25.8L24.6 23.4C24.4 23.3 24.3 23.2 24.2 23C24.1 22.8 24.1 22.7 24.1 22.5V18.1H26.2V21.9L29.4 23.7L33.1 21.6L34.1 23.4L29.9 25.7C29.7 25.8 29.5 25.9 29.3 25.9Z" fill="black"/>
<path d="M29.3 31.1C29.1 31.1 28.9 31.1 28.8 31L20 26.1C19.8 26 19.7 25.9 19.6 25.7C19.5 25.5 19.5 25.4 19.5 25.2V13.8C19.5 13.7 19.5 13.5 19.6 13.4C19.7 13.3 19.7 13.2 19.8 13.1C19.9 13 20 12.9 20.2 12.9C20.3 12.8 20.5 12.8 20.6 12.8H33.4V14.9H21.6V24.5L29.3 28.8L37 24.5V20H39.1V25.1C39.1 25.3 39 25.5 39 25.6C38.9 25.8 38.8 25.9 38.6 26L29.8 30.9C29.7 31 29.5 31.1 29.3 31.1Z" fill="black"/>
<path d="M39.1 16H37V10.3H23.2V8.20001H38.1C38.2 8.20001 38.4 8.20001 38.5 8.30001C38.6 8.40001 38.7 8.40001 38.8 8.50001C38.9 8.60001 39 8.70001 39 8.90001C39.1 9.00001 39.1 9.20001 39.1 9.30001V16ZM53.5 18.2C53.5 13.7 56.8 10.3 61.4 10.3C64.1 10.3 66.6 11.7 67.9 13.8L64.9 15.5C64.2 14.3 62.9 13.6 61.4 13.6C58.7 13.6 57 15.4 57 18.1C57 20.8 58.7 22.6 61.4 22.6C62.9 22.6 64.3 21.9 64.9 20.7L67.9 22.4C66.6 24.5 64.2 25.9 61.4 25.9C56.9 26 53.5 22.6 53.5 18.2ZM97.7 22.6V26H87.5V10.3H97.7V13.7H91.1V16.4H96.9V19.7H91.1V22.6H97.7ZM80.6 20.3C82.3 19.4 83.5 17.7 83.5 15.7C83.5 12.7 81.1 10.3 78.1 10.3H71.8V26.1H75.4V20.9H77.1L80.1 26.1H84L80.6 20.3ZM78.1 17.7H75.4V13.7H78.1C79.1 13.7 79.9 14.6 79.9 15.7C79.9 16.8 79.1 17.7 78.1 17.7ZM107.4 10.3H101.6V26H107.4C111.7 26 115 22.6 115 18.1C115 13.7 111.7 10.3 107.4 10.3ZM107.4 22.6H105.2V13.6H107.4C109.9 13.6 111.6 15.4 111.6 18.1C111.5 20.8 109.9 22.6 107.4 22.6Z" fill="black"/>
</svg>
