<svg width="24" height="28" viewBox="0 0 24 28" fill="none" xmlns="http://www.w3.org/2000/svg">
<path d="M4.8 13C4.8 12.7348 4.92643 12.4804 5.15147 12.2929C5.37652 12.1054 5.68174 12 6 12H13.2C13.5183 12 13.8235 12.1054 14.0485 12.2929C14.2736 12.4804 14.4 12.7348 14.4 13C14.4 13.2652 14.2736 13.5196 14.0485 13.7071C13.8235 13.8946 13.5183 14 13.2 14H6C5.68174 14 5.37652 13.8946 5.15147 13.7071C4.92643 13.5196 4.8 13.2652 4.8 13ZM4.8 19C4.8 18.7348 4.92643 18.4804 5.15147 18.2929C5.37652 18.1054 5.68174 18 6 18H13.2C13.5183 18 13.8235 18.1054 14.0485 18.2929C14.2736 18.4804 14.4 18.7348 14.4 19C14.4 19.2652 14.2736 19.5196 14.0485 19.7071C13.8235 19.8946 13.5183 20 13.2 20H6C5.68174 20 5.37652 19.8946 5.15147 19.7071C4.92643 19.5196 4.8 19.2652 4.8 19ZM18 14C18.3183 14 18.6235 13.8946 18.8485 13.7071C19.0736 13.5196 19.2 13.2652 19.2 13C19.2 12.7348 19.0736 12.4804 18.8485 12.2929C18.6235 12.1054 18.3183 12 18 12C17.6817 12 17.3765 12.1054 17.1515 12.2929C16.9264 12.4804 16.8 12.7348 16.8 13C16.8 13.2652 16.9264 13.5196 17.1515 13.7071C17.3765 13.8946 17.6817 14 18 14ZM18 20C18.3183 20 18.6235 19.8946 18.8485 19.7071C19.0736 19.5196 19.2 19.2652 19.2 19C19.2 18.7348 19.0736 18.4804 18.8485 18.2929C18.6235 18.1054 18.3183 18 18 18C17.6817 18 17.3765 18.1054 17.1515 18.2929C16.9264 18.4804 16.8 18.7348 16.8 19C16.8 19.2652 16.9264 19.5196 17.1515 19.7071C17.3765 19.8946 17.6817 20 18 20ZM5.004 2C5.25226 1.41484 5.7122 0.908257 6.32042 0.550056C6.92865 0.191856 7.65522 -0.00032496 8.4 4.12473e-07H15.6C16.3448 -0.00032496 17.0714 0.191856 17.6796 0.550056C18.2878 0.908257 18.7477 1.41484 18.996 2H20.4C21.3548 2 22.2705 2.31607 22.9456 2.87868C23.6207 3.44129 24 4.20435 24 5V25C24 25.7956 23.6207 26.5587 22.9456 27.1213C22.2705 27.6839 21.3548 28 20.4 28H3.6C2.64522 28 1.72955 27.6839 1.05442 27.1213C0.379285 26.5587 0 25.7956 0 25V5C0 4.20435 0.379285 3.44129 1.05442 2.87868C1.72955 2.31607 2.64522 2 3.6 2H5.004ZM8.4 2C8.08174 2 7.77652 2.10536 7.55147 2.29289C7.32643 2.48043 7.2 2.73478 7.2 3C7.2 3.26522 7.32643 3.51957 7.55147 3.70711C7.77652 3.89464 8.08174 4 8.4 4H15.6C15.9183 4 16.2235 3.89464 16.4485 3.70711C16.6736 3.51957 16.8 3.26522 16.8 3C16.8 2.73478 16.6736 2.48043 16.4485 2.29289C16.2235 2.10536 15.9183 2 15.6 2H8.4ZM5.004 4H3.6C3.28174 4 2.97652 4.10536 2.75147 4.29289C2.52643 4.48043 2.4 4.73478 2.4 5V25C2.4 25.2652 2.52643 25.5196 2.75147 25.7071C2.97652 25.8946 3.28174 26 3.6 26H20.4C20.7183 26 21.0235 25.8946 21.2485 25.7071C21.4736 25.5196 21.6 25.2652 21.6 25V5C21.6 4.73478 21.4736 4.48043 21.2485 4.29289C21.0235 4.10536 20.7183 4 20.4 4H18.996C18.7477 4.58516 18.2878 5.09174 17.6796 5.44994C17.0714 5.80815 16.3448 6.00033 15.6 6H8.4C7.65522 6.00033 6.92865 5.80815 6.32042 5.44994C5.7122 5.09174 5.25226 4.58516 5.004 4Z" fill="white"/>
</svg>
