<svg width="34" height="35" viewBox="0 0 34 35" fill="none" xmlns="http://www.w3.org/2000/svg">
<path d="M18.5086 5.83341C18.5086 7.07189 17.572 8.00008 16.5074 8.00008C15.4428 8.00008 14.5061 7.07189 14.5061 5.83341C14.5061 4.59494 15.4428 3.66675 16.5074 3.66675C17.572 3.66675 18.5086 4.59494 18.5086 5.83341Z" stroke="white" stroke-width="1.5"/>
<path d="M27.5124 19.6666C26.4478 19.6666 25.5111 18.7384 25.5111 17.4999C25.5111 16.2614 26.4478 15.3333 27.5124 15.3333C28.577 15.3333 29.5136 16.2614 29.5136 17.4999C29.5136 18.7384 28.577 19.6666 27.5124 19.6666Z" stroke="white" stroke-width="1.5"/>
<circle r="2.08516" transform="matrix(-0.686177 0.727434 -0.686177 -0.727435 24.2892 25.7495)" stroke="white" stroke-width="1.5"/>
<circle r="2.08516" transform="matrix(-0.686177 -0.727435 0.686177 -0.727434 8.72586 25.7497)" stroke="white" stroke-width="1.5"/>
<path d="M16.5074 8.02075V10.9374" stroke="white" stroke-width="1.5" stroke-linecap="round"/>
<path d="M25.4489 17.5L22.6977 17.5" stroke="white" stroke-width="1.5" stroke-linecap="round"/>
<path d="M22.83 24.2029L20.8846 22.1405" stroke="white" stroke-width="1.5" stroke-linecap="round"/>
<path d="M10.1848 24.2029L12.1302 22.1405" stroke="white" stroke-width="1.5" stroke-linecap="round"/>
<path d="M16.5074 24.7917V26.2501" stroke="white" stroke-width="1.5" stroke-linecap="round"/>
<path d="M9.62928 17.5L8.25366 17.5" stroke="white" stroke-width="1.5" stroke-linecap="round"/>
<path d="M11.6437 12.3438L10.671 11.3126" stroke="white" stroke-width="1.5" stroke-linecap="round"/>
<path d="M21.3711 12.3438L22.3438 11.3126" stroke="white" stroke-width="1.5" stroke-linecap="round"/>
<path d="M18.5086 29.1667C18.5086 30.4051 17.572 31.3333 16.5074 31.3333C15.4428 31.3333 14.5061 30.4051 14.5061 29.1667C14.5061 27.9282 15.4428 27 16.5074 27C17.572 27 18.5086 27.9282 18.5086 29.1667Z" stroke="white" stroke-width="1.5"/>
<path d="M5.50241 19.6666C4.43781 19.6666 3.50117 18.7384 3.50117 17.4999C3.50117 16.2614 4.43781 15.3333 5.50241 15.3333C6.56701 15.3333 7.50365 16.2614 7.50365 17.4999C7.50365 18.7384 6.56701 19.6666 5.50241 19.6666Z" stroke="white" stroke-width="1.5"/>
<circle r="2.08516" transform="matrix(-0.686177 0.727434 -0.686177 -0.727435 8.72544 9.25049)" stroke="white" stroke-width="1.5"/>
<circle r="2.08516" transform="matrix(-0.686177 -0.727435 0.686177 -0.727434 24.2889 9.25021)" stroke="white" stroke-width="1.5"/>
<path d="M22.6355 17.4999C22.6355 21.1546 19.8512 24.0416 16.5074 24.0416C13.1636 24.0416 10.3793 21.1546 10.3793 17.4999C10.3793 13.8452 13.1636 10.9583 16.5074 10.9583C19.8512 10.9583 22.6355 13.8452 22.6355 17.4999Z" stroke="white" stroke-width="1.5"/>
<path d="M18.5085 15.9191C18.5085 17.1576 17.5719 18.0858 16.5073 18.0858C15.4427 18.0858 14.506 17.1576 14.506 15.9191C14.506 14.6806 15.4427 13.7524 16.5073 13.7524C17.5719 13.7524 18.5085 14.6806 18.5085 15.9191Z" stroke="white" stroke-width="1.5"/>
<path d="M20.0663 22.2221C19.2915 21.0171 17.9865 20.2258 16.5071 20.2258C15.0277 20.2258 13.7227 21.0171 12.948 22.2221" stroke="white" stroke-width="1.5"/>
</svg>
