<svg width="33" height="33" viewBox="0 0 33 33" fill="none" xmlns="http://www.w3.org/2000/svg">
<path d="M29.9393 32.0607C30.5251 32.6464 31.4749 32.6464 32.0607 32.0607C32.6464 31.4749 32.6464 30.5251 32.0607 29.9393L29.9393 32.0607ZM32.0607 29.9393L23.5607 21.4393L21.4393 23.5607L29.9393 32.0607L32.0607 29.9393ZM24.5 14C24.5 19.799 19.799 24.5 14 24.5V27.5C21.4558 27.5 27.5 21.4558 27.5 14H24.5ZM14 24.5C8.20101 24.5 3.5 19.799 3.5 14H0.5C0.5 21.4558 6.54416 27.5 14 27.5V24.5ZM3.5 14C3.5 8.20101 8.20101 3.5 14 3.5V0.5C6.54416 0.5 0.5 6.54416 0.5 14H3.5ZM14 3.5C19.799 3.5 24.5 8.20101 24.5 14H27.5C27.5 6.54416 21.4558 0.5 14 0.5V3.5Z" fill="white"/>
</svg>
