<svg width="42" height="42" viewBox="0 0 42 42" fill="none" xmlns="http://www.w3.org/2000/svg">
<g clip-path="url(#clip0_16_192)">
<path d="M34.5 18L36.8895 22.5L42 23.121L38.25 26.5005L39 31.5L34.5 28.6875L30 31.5L30.75 26.5005L27 23.121L32.25 22.5L34.5 18ZM30 48H27V40.5C26.9976 38.5116 26.2067 36.6053 24.8007 35.1993C23.3947 33.7933 21.4884 33.0024 19.5 33H10.5C8.51161 33.0024 6.60534 33.7933 5.19933 35.1993C3.79332 36.6053 3.00238 38.5116 3 40.5V48H0V40.5C0.00317604 37.7162 1.11044 35.0473 3.07889 33.0789C5.04733 31.1104 7.7162 30.0032 10.5 30H19.5C22.2838 30.0032 24.9527 31.1104 26.9211 33.0789C28.8896 35.0473 29.9968 37.7162 30 40.5V48ZM15 9C16.4834 9 17.9334 9.43987 19.1668 10.264C20.4001 11.0881 21.3614 12.2594 21.9291 13.6299C22.4968 15.0003 22.6453 16.5083 22.3559 17.9632C22.0665 19.418 21.3522 20.7544 20.3033 21.8033C19.2544 22.8522 17.918 23.5665 16.4632 23.8559C15.0083 24.1453 13.5003 23.9968 12.1299 23.4291C10.7594 22.8614 9.58809 21.9001 8.76398 20.6668C7.93987 19.4334 7.5 17.9834 7.5 16.5C7.5 14.5109 8.29018 12.6032 9.6967 11.1967C11.1032 9.79018 13.0109 9 15 9ZM15 6C12.9233 6 10.8932 6.61581 9.16651 7.76957C7.4398 8.92332 6.09399 10.5632 5.29926 12.4818C4.50454 14.4004 4.29661 16.5116 4.70175 18.5484C5.1069 20.5852 6.10693 22.4562 7.57538 23.9246C9.04383 25.3931 10.9148 26.3931 12.9516 26.7982C14.9884 27.2034 17.0996 26.9955 19.0182 26.2007C20.9368 25.406 22.5767 24.0602 23.7304 22.3335C24.8842 20.6068 25.5 18.5767 25.5 16.5C25.5 13.7152 24.3938 11.0445 22.4246 9.07538C20.4555 7.10625 17.7848 6 15 6Z" fill="#FF0C00"/>
</g>
<defs>
<clipPath id="clip0_16_192">
<rect width="42" height="42" fill="white"/>
</clipPath>
</defs>
</svg>
