<svg width="47" height="47" viewBox="0 0 47 47" fill="none" xmlns="http://www.w3.org/2000/svg">
<path d="M12.3333 6.1V12.3H6.11111V6.1H12.3333ZM3 3V15.4H15.4444V3H3ZM27.8889 10.75V16.95H21.6667V10.75H27.8889ZM18.5556 7.65V20.05H31V7.65H18.5556ZM12.3333 24.7V30.9H6.11111V24.7H12.3333ZM3 21.6V34H15.4444V21.6H3Z" fill="#6C3AFF"/>
<path d="M34.6 16V25.3H25.3V34.6H16V47H47V16H34.6ZM28.4 28.4H34.6V34.6H28.4V28.4ZM25.3 43.9H19.1V37.7H25.3V43.9ZM34.6 43.9H28.4V37.7H34.6V43.9ZM43.9 43.9H37.7V37.7H43.9V43.9ZM43.9 34.6H37.7V28.4H43.9V34.6ZM37.7 25.3V19.1H43.9V25.3H37.7Z" fill="#6C3AFF"/>
</svg>
