<svg width="46" height="46" viewBox="0 0 46 46" fill="none" xmlns="http://www.w3.org/2000/svg">
<g clip-path="url(#clip0_60_389)">
<path d="M11.7011 12.4224L7.71583 12.7303C6.6069 12.816 5.61926 13.3972 5.00599 14.3248L0.409886 21.2762C-0.055231 21.9797 -0.129172 22.86 0.211962 23.6312C0.553186 24.4025 1.25441 24.9399 2.08771 25.069L5.73668 25.6341C6.59028 21.1042 8.63367 16.5855 11.7011 12.4224Z" fill="white"/>
<path d="M20.3657 40.2633L20.9309 43.9122C21.06 44.7455 21.5975 45.4467 22.3686 45.7879C22.6894 45.9298 23.029 45.9999 23.3669 45.9999C23.8416 45.9999 24.3129 45.8616 24.7237 45.59L31.6753 40.9939C32.6029 40.3806 33.1841 39.3929 33.2696 38.2841L33.5775 34.2988C29.4144 37.3664 24.8957 39.4097 20.3657 40.2633Z" fill="white"/>
<path d="M18.9934 37.7341C19.1201 37.7341 19.2475 37.7237 19.3746 37.7025C21.2724 37.3851 23.1017 36.8506 24.8466 36.1509L9.84909 21.1534C9.14939 22.8982 8.61482 24.7274 8.2975 26.6253C8.17244 27.3735 8.42337 28.1356 8.95964 28.672L17.328 37.0403C17.7732 37.4855 18.3742 37.7341 18.9934 37.7341Z" fill="white"/>
<path d="M42.3322 20.3946C46.0022 13.2994 46.1381 5.80143 45.9463 2.28498C45.8806 1.08009 44.92 0.119491 43.715 0.053816C43.1425 0.0225506 42.4639 0 41.699 0C37.767 0 31.5452 0.59557 25.6054 3.66793C20.8848 6.1096 14.6949 11.4859 11.043 18.5513C11.0861 18.585 11.1282 18.6208 11.1679 18.6605L27.3397 34.8322C27.3794 34.8719 27.4151 34.914 27.4488 34.9571C34.5142 31.3051 39.8905 25.1152 42.3322 20.3946ZM26.7462 9.72461C29.3733 7.09751 33.6481 7.09724 36.2754 9.72461C37.5481 10.9972 38.249 12.6894 38.249 14.4893C38.249 16.2891 37.5481 17.9813 36.2754 19.2539C34.962 20.5673 33.2361 21.2242 31.5108 21.2243C29.785 21.2244 28.06 20.5677 26.7462 19.2539C25.4735 17.9813 24.7725 16.2891 24.7725 14.4893C24.7725 12.6894 25.4735 10.9972 26.7462 9.72461Z" fill="white"/>
<path d="M28.6519 17.348C30.2282 18.9243 32.7933 18.9244 34.3696 17.348C35.1332 16.5844 35.5537 15.5691 35.5537 14.4892C35.5537 13.4093 35.1332 12.394 34.3696 11.6305C33.5815 10.8423 32.5461 10.4482 31.5107 10.4482C30.4755 10.4482 29.4401 10.8423 28.652 11.6305C27.8884 12.394 27.4678 13.4093 27.4678 14.4892C27.4678 15.5691 27.8883 16.5845 28.6519 17.348Z" fill="white"/>
<path d="M1.37504 37.9082C1.71996 37.9082 2.06487 37.7767 2.32793 37.5135L6.72785 33.1136C7.25415 32.5873 7.25415 31.734 6.72785 31.2077C6.20163 30.6814 5.3483 30.6814 4.82199 31.2077L0.422072 35.6076C-0.104232 36.1339 -0.104232 36.9872 0.422072 37.5135C0.685225 37.7766 1.03013 37.9082 1.37504 37.9082Z" fill="white"/>
<path d="M10.7601 35.2399C10.2339 34.7136 9.38052 34.7136 8.85421 35.2399L0.394973 43.6992C-0.131332 44.2255 -0.131332 45.0787 0.394973 45.605C0.658125 45.8682 1.00304 45.9997 1.34795 45.9997C1.69286 45.9997 2.03777 45.8682 2.30083 45.6049L10.76 37.1458C11.2864 36.6195 11.2864 35.7662 10.7601 35.2399Z" fill="white"/>
<path d="M12.8864 39.2722L8.48653 43.6721C7.96022 44.1984 7.96022 45.0517 8.48653 45.578C8.74968 45.8411 9.09459 45.9727 9.43941 45.9727C9.78423 45.9727 10.1292 45.8412 10.3923 45.578L14.7922 41.1781C15.3185 40.6518 15.3185 39.7985 14.7922 39.2722C14.266 38.7459 13.4127 38.7459 12.8864 39.2722Z" fill="white"/>
</g>
<defs>
<clipPath id="clip0_60_389">
<rect width="46" height="46" fill="white"/>
</clipPath>
</defs>
</svg>
