<svg width="43" height="43" viewBox="0 0 43 43" fill="none" xmlns="http://www.w3.org/2000/svg">
<path d="M23.7661 10.7125L30.64 2.47308H0V10.7125H23.7661ZM16.069 5.28622H18.5885V7.81978H16.069V5.28622ZM10.652 5.28622H13.1715V7.81978H10.652V5.28622ZM5.235 5.28622H7.75453V7.81978H5.235V5.28622Z" fill="white"/>
<path d="M33.9212 2.47308L24.9454 13.232H0V40.5269H43V2.47308H33.9212ZM23.5827 28.1768C23.5827 30.7469 21.4918 32.8379 18.9216 32.8379C16.3514 32.8379 14.2605 30.7469 14.2605 28.1768V20.3242H16.78V28.1768C16.78 29.3577 17.7407 30.3184 18.9216 30.3184C20.1025 30.3184 21.0632 29.3577 21.0632 28.1768V20.3242H23.5827V28.1768ZM28.7395 32.7819H26.22V20.3242H28.7395V32.7819Z" fill="white"/>
</svg>
