<svg width="47" height="47" viewBox="0 0 47 47" fill="none" xmlns="http://www.w3.org/2000/svg">
<path d="M40.3505 9.46467C41.4648 9.46467 42.4544 10.0098 43.2497 10.4478C43.8339 10.7695 44.295 11.0235 44.7696 11.0235C44.9752 11.0235 46 10.9512 46 9.52004V5.97171C46 4.3331 44.6671 3 43.0283 3H28.1187C26.4801 3 25.147 4.3331 25.147 5.97171V20.8814C25.147 22.52 26.4801 23.8531 28.1187 23.8531H43.0282C44.6669 23.8531 45.9999 22.52 45.9999 20.8814V17.3332C45.9999 15.9021 44.9751 15.8297 44.7694 15.8297C44.2949 15.8297 43.8336 16.0838 43.2498 16.4053C42.4545 16.8434 41.4649 17.3885 40.3504 17.3885C38.2051 17.3885 36.4598 15.6112 36.4598 13.4265C36.4596 11.242 38.2052 9.46467 40.3505 9.46467Z" fill="white"/>
<path d="M19.8814 3H16.3331C14.902 3 14.8297 4.02508 14.8297 4.2306C14.8297 4.70493 15.0838 5.16633 15.4053 5.75034C15.8433 6.54562 16.3885 7.53535 16.3885 8.64948C16.3885 10.7949 14.6111 12.5402 12.4265 12.5402C10.2419 12.5402 8.46457 10.7949 8.46457 8.64948C8.46457 7.53546 9.00969 6.54572 9.44763 5.75045C9.76941 5.16633 10.0234 4.70503 10.0234 4.2306C10.0234 4.02508 9.95094 3 8.51983 3H4.97171C3.3331 3 2 4.3332 2 5.97171V20.8814C2 22.52 3.3331 23.8531 4.97171 23.8531H19.8814C21.52 23.8531 22.8531 22.52 22.8531 20.8814V5.97171C22.8531 4.3332 21.52 3 19.8814 3Z" fill="white"/>
<path d="M19.8814 25.9775H4.97171C3.3331 25.9775 2 27.3106 2 28.9492V32.4972C2 33.9285 3.02498 34.0009 3.2305 34.0009C3.70493 34.0009 4.16622 33.7467 4.75024 33.4252C5.54551 32.9872 6.53525 32.4419 7.64948 32.4419C9.79485 32.4419 11.5402 34.2192 11.5402 36.404C11.5402 38.5884 9.79485 40.3659 7.64948 40.3659C6.53546 40.3659 5.54572 39.8207 4.75045 39.3826C4.16622 39.0609 3.70493 38.8069 3.2305 38.8069C3.02498 38.8072 2 38.8795 2 40.3107V43.8588C2 45.4976 3.3331 46.8306 4.97171 46.8306H19.8814C21.52 46.8306 22.8531 45.4976 22.8531 43.8588V28.9492C22.8531 27.3106 21.52 25.9775 19.8814 25.9775Z" fill="white"/>
<path d="M43.0283 25.9775H28.1187C26.4801 25.9775 25.147 27.3106 25.147 28.9492V43.8588C25.147 45.4975 26.4801 46.8306 28.1187 46.8306H31.6668C33.098 46.8306 33.1702 45.8055 33.1702 45.5998C33.1702 45.1255 32.916 44.6641 32.5945 44.0801C32.1567 43.2848 31.6114 42.2952 31.6114 41.181C31.6114 39.0356 33.3887 37.2904 35.5733 37.2904C37.758 37.2904 39.5354 39.0356 39.5354 41.181C39.5354 42.2951 38.9901 43.2847 38.5522 44.08C38.2302 44.6643 37.9764 45.1254 37.9764 45.5998C37.9764 45.8054 38.0488 46.8305 39.48 46.8305H43.0281C44.6668 46.8305 45.9998 45.4975 45.9998 43.8587V28.9492C46 27.3106 44.6668 25.9775 43.0283 25.9775Z" fill="white"/>
</svg>
