<svg width="56" height="56" viewBox="0 0 56 56" fill="none" xmlns="http://www.w3.org/2000/svg">
<g clip-path="url(#clip0_60_398)">
<path d="M55.8236 24.8913C55.7352 24.1042 54.8171 23.5121 54.0232 23.5121C51.4575 23.5121 49.1806 22.0062 48.2256 19.6755C47.2509 17.2888 47.8798 14.5059 49.7913 12.7523C50.3934 12.2018 50.4668 11.2801 49.9621 10.6403C48.6485 8.9726 47.1562 7.466 45.5263 6.16041C44.8886 5.64893 43.9517 5.72013 43.3983 6.3326C41.7294 8.18092 38.7315 8.86774 36.4148 7.9012C34.0048 6.88719 32.4837 4.44432 32.6331 1.82224C32.6823 0.998101 32.0798 0.281975 31.2585 0.186314C29.1668 -0.0558659 27.0567 -0.0628891 24.9589 0.169846C24.1481 0.259452 23.5461 0.958626 23.5729 1.77235C23.6638 4.36876 22.1254 6.76852 19.7387 7.7462C17.4499 8.68126 14.4728 7.99952 12.8073 6.16743C12.2568 5.56392 11.3363 5.48981 10.6943 5.9904C9.01647 7.30713 7.49049 8.8147 6.16479 10.4688C5.64822 11.1118 5.72451 12.0437 6.33166 12.5961C8.28096 14.3614 8.90942 17.1682 7.89735 19.5828C6.93105 21.8847 4.54098 23.3675 1.80507 23.3675C0.917239 23.339 0.285392 23.9355 0.187309 24.7429C-0.0587462 26.8457 -0.0614102 28.9895 0.175442 31.1095C0.263838 31.9 1.20907 32.4871 2.01165 32.4871C4.4504 32.4251 6.79035 33.9339 7.77336 36.3234C8.75152 38.7101 8.12185 41.4918 6.20718 43.2478C5.60827 43.7983 5.53174 44.7179 6.03741 45.357C7.33767 47.0142 8.83144 48.5218 10.4662 49.8385C11.1079 50.3554 12.0413 50.2829 12.5976 49.6697C14.273 47.8171 17.2704 47.1315 19.5777 48.0999C21.9946 49.1113 23.5151 51.5539 23.3666 54.1767C23.3179 55.0008 23.9219 55.7192 24.7402 55.8126C25.8107 55.9378 26.8867 55.9998 27.9661 55.9998C28.9905 55.9998 30.0152 55.9439 31.0398 55.8298C31.8516 55.7402 32.4527 55.0403 32.4253 54.2264C32.3316 51.6312 33.8733 49.2311 36.2571 48.2554C38.5612 47.3143 41.525 48.0031 43.1915 49.8325C43.7448 50.4348 44.6598 50.5079 45.3045 50.0093C46.9794 48.6959 48.5025 47.1891 49.834 45.5306C50.351 44.8889 50.2776 43.9557 49.6671 43.4024C47.7183 41.6383 47.0864 38.8302 48.0985 36.4181C49.0498 34.1472 51.351 32.6224 53.8261 32.6224L54.1724 32.6316C54.9759 32.6968 55.7143 32.078 55.8115 31.2582C56.0587 29.1535 56.0614 27.0121 55.8236 24.8913ZM27.9997 44.1422C19.0844 44.1422 11.8575 36.9153 11.8575 28.0002C11.8575 19.0851 19.0846 11.8582 27.9997 11.8582C36.9149 11.8582 44.142 19.0851 44.142 28.0002C44.142 31.0262 43.3077 33.8566 41.8587 36.2769L34.7905 29.2084C35.3022 28.0019 35.5725 26.6939 35.5722 25.344C35.5722 22.7006 34.5427 20.2156 32.6733 18.3467C30.8044 16.4778 28.3194 15.4485 25.6765 15.4485C24.7945 15.4485 23.9166 15.5657 23.0673 15.797C22.6953 15.8985 22.3911 16.2051 22.292 16.5778C22.1908 16.959 22.3049 17.3496 22.6028 17.6477C22.6028 17.6477 26.0923 21.1642 27.2599 22.3315C27.3822 22.4538 27.3819 22.7456 27.3647 22.8507L27.3538 22.9275C27.2361 24.2111 27.0092 25.7518 26.822 26.3439C26.7968 26.3689 26.7731 26.3899 26.7474 26.4156C26.7205 26.4425 26.6958 26.4684 26.6699 26.4951C26.0701 26.6876 24.5056 26.9172 23.2017 27.0339L23.2019 27.0269L23.1433 27.0417C23.1329 27.0429 23.1135 27.0443 23.0878 27.0443C22.9469 27.0443 22.7396 27.0048 22.5512 26.8167C21.3359 25.6014 17.9832 22.2726 17.9832 22.2726C17.6824 21.9728 17.3739 21.9099 17.1682 21.9099C16.689 21.9099 16.2598 22.2562 16.1247 22.7529C15.2017 26.1684 16.1801 29.8422 18.6787 32.341C20.5481 34.2102 23.0334 35.2394 25.6768 35.2394C27.0267 35.2394 28.3347 34.9694 29.541 34.4577L36.686 41.6027C34.1775 43.2079 31.1987 44.1422 27.9997 44.1422Z" fill="white"/>
</g>
<defs>
<clipPath id="clip0_60_398">
<rect width="56" height="56" fill="white"/>
</clipPath>
</defs>
</svg>
