<svg width="50" height="50" viewBox="0 0 50 50" fill="none" xmlns="http://www.w3.org/2000/svg">
<path d="M16.537 36.537L24.224 44.229L45.378 23.073H29.998L16.537 36.537Z" fill="#39CEFD"/>
<path d="M29.998 0.000976562H45.378L12.693 32.69L5 24.998L29.998 0.000976562Z" fill="#39CEFD"/>
<path d="M24.225 44.2289L29.997 49.9919H45.377L31.918 36.5369L24.225 44.2289Z" fill="#03569B"/>
<path d="M35.634 40.2769L31.918 36.5369L24.226 44.2289L35.634 40.2769Z" fill="url(#paint0_linear_26_324)"/>
<path d="M16.537 36.5341L24.229 28.8411L31.922 36.5341L24.23 44.2271L16.537 36.5341Z" fill="#16B9FD"/>
<path d="M45.378 23.073L31.919 36.536L45.378 50H29.998L16.534 36.536L29.998 23.073H45.378ZM29.998 0.000976562L4.99799 25.001L12.69 32.693L45.378 0.000976562H29.998Z" fill="url(#paint1_radial_26_324)"/>
<defs>
<linearGradient id="paint0_linear_26_324" x1="26.4734" y1="45.7134" x2="29.6114" y2="38.8067" gradientUnits="userSpaceOnUse">
<stop stop-color="#1A237E" stop-opacity="0.4"/>
<stop offset="1" stop-color="#1A237E" stop-opacity="0"/>
</linearGradient>
<radialGradient id="paint1_radial_26_324" cx="0" cy="0" r="1" gradientUnits="userSpaceOnUse" gradientTransform="translate(5.97682 -11.49) scale(61.1383 61.1488)">
<stop stop-color="white" stop-opacity="0.102"/>
<stop offset="1" stop-color="white" stop-opacity="0"/>
</radialGradient>
</defs>
</svg>
