<svg width="48" height="48" viewBox="0 0 48 48" fill="none" xmlns="http://www.w3.org/2000/svg">
<g clip-path="url(#clip0_60_415)">
<path d="M22.3125 30.1875V30.195H20.0625C19.3166 30.195 18.6012 30.4913 18.0738 31.0188C17.5463 31.5462 17.25 32.2616 17.25 33.0075V45.1875C17.25 45.9334 17.5463 46.6488 18.0738 47.1762C18.6012 47.7037 19.3166 48 20.0625 48H27.9375C28.6834 48 29.3988 47.7037 29.9262 47.1762C30.4537 46.6488 30.75 45.9334 30.75 45.1875V33.0075C30.75 32.2616 30.4537 31.5462 29.9262 31.0188C29.3988 30.4913 28.6834 30.195 27.9375 30.195H25.6875V30.1875H22.3125Z" fill="white"/>
<path d="M45.1875 30.195H42.9375V30.1875H39.5625V30.195H37.3125C36.5666 30.195 35.8512 30.4913 35.3238 31.0188C34.7963 31.5462 34.5 32.2616 34.5 33.0075V45.1875C34.5 45.9334 34.7963 46.6488 35.3238 47.1762C35.8512 47.7037 36.5666 48 37.3125 48H45.1875C45.9334 48 46.6488 47.7037 47.1762 47.1762C47.7037 46.6488 48 45.9334 48 45.1875V33.0075C48 32.2616 47.7037 31.5462 47.1762 31.0188C46.6488 30.4913 45.9334 30.195 45.1875 30.195Z" fill="white"/>
<path d="M40.125 29.0625H42.375C42.5242 29.0625 42.6673 29.0032 42.7727 28.8977C42.8782 28.7923 42.9375 28.6492 42.9375 28.5V25.6875C42.9375 24.6432 42.5227 23.6417 41.7842 22.9033C41.0458 22.1648 40.0443 21.75 39 21.75H25.6875V20.4375C25.6875 20.2883 25.6282 20.1452 25.5227 20.0398C25.4173 19.9343 25.2742 19.875 25.125 19.875H22.875C22.7258 19.875 22.5827 19.9343 22.4773 20.0398C22.3718 20.1452 22.3125 20.2883 22.3125 20.4375V21.75H9C7.95571 21.75 6.95419 22.1648 6.21577 22.9033C5.47734 23.6417 5.0625 24.6432 5.0625 25.6875V28.5C5.0625 28.6492 5.12176 28.7923 5.22725 28.8977C5.33274 29.0032 5.47582 29.0625 5.625 29.0625H7.875C8.02418 29.0625 8.16726 29.0032 8.27275 28.8977C8.37824 28.7923 8.4375 28.6492 8.4375 28.5V25.6875C8.4375 25.5383 8.49676 25.3952 8.60225 25.2898C8.70774 25.1843 8.85082 25.125 9 25.125H22.3125V28.5C22.3125 28.6492 22.3718 28.7923 22.4773 28.8977C22.5827 29.0032 22.7258 29.0625 22.875 29.0625H25.125C25.2742 29.0625 25.4173 29.0032 25.5227 28.8977C25.6282 28.7923 25.6875 28.6492 25.6875 28.5V25.125H39C39.1492 25.125 39.2923 25.1843 39.3977 25.2898C39.5032 25.3952 39.5625 25.5383 39.5625 25.6875V28.5C39.5625 28.6492 39.6218 28.7923 39.7273 28.8977C39.8327 29.0032 39.9758 29.0625 40.125 29.0625Z" fill="white"/>
<path d="M11.4375 18.75H36.5625C37.3084 18.75 38.0238 18.4537 38.5512 17.9262C39.0787 17.3988 39.375 16.6834 39.375 15.9375V2.8125C39.375 2.06658 39.0787 1.35121 38.5512 0.823762C38.0238 0.296316 37.3084 0 36.5625 0L11.4375 0C10.6916 0 9.97621 0.296316 9.44876 0.823762C8.92132 1.35121 8.625 2.06658 8.625 2.8125V15.9375C8.625 16.6834 8.92132 17.3988 9.44876 17.9262C9.97621 18.4537 10.6916 18.75 11.4375 18.75ZM28.4625 6.76875C28.2721 6.52685 28.1851 6.21952 28.2204 5.91373C28.2556 5.60794 28.4103 5.32847 28.6507 5.13622C28.8911 4.94396 29.1977 4.85451 29.5037 4.88734C29.8098 4.92017 30.0905 5.07263 30.2846 5.3115L32.9513 8.64487C33.1178 8.85121 33.2086 9.10836 33.2086 9.3735C33.2086 9.63864 33.1178 9.89579 32.9513 10.1021L30.2839 13.4359C30.0884 13.6708 29.8087 13.8196 29.5047 13.8504C29.2007 13.8812 28.8967 13.7915 28.6581 13.6006C28.4196 13.4096 28.2654 13.1327 28.2288 12.8294C28.1923 12.526 28.2762 12.2204 28.4625 11.9782L30.5475 9.375L28.4625 6.76875ZM22.1029 12.4462L23.6306 5.77987C23.7026 5.48138 23.8893 5.22328 24.1503 5.06155C24.4113 4.89983 24.7255 4.84752 25.0249 4.91597C25.3242 4.98442 25.5844 5.16811 25.7492 5.4272C25.914 5.6863 25.9699 5.9999 25.905 6.3L24.3769 12.9675C24.3193 13.2256 24.1752 13.4563 23.9686 13.6213C23.7619 13.7864 23.5051 13.8759 23.2406 13.875C23.0656 13.8736 22.893 13.8331 22.7356 13.7565C22.5782 13.6798 22.44 13.569 22.3309 13.432C22.2219 13.2951 22.1448 13.1355 22.1053 12.965C22.0659 12.7944 22.065 12.6172 22.1029 12.4462ZM15.0458 8.64637L17.7052 5.31262C17.8006 5.19231 17.9188 5.092 18.053 5.01745C18.1871 4.94289 18.3347 4.89555 18.4873 4.87814C18.6398 4.86073 18.7942 4.87359 18.9418 4.916C19.0893 4.9584 19.227 5.0295 19.3471 5.12523C19.4671 5.22096 19.567 5.33944 19.6411 5.47387C19.7153 5.6083 19.7621 5.75603 19.7791 5.90861C19.796 6.06119 19.7826 6.21561 19.7398 6.36302C19.6969 6.51042 19.6254 6.64792 19.5292 6.76763L17.4506 9.375L19.5292 11.9809C19.6248 12.1006 19.6958 12.2381 19.7383 12.3853C19.7808 12.5325 19.7938 12.6866 19.7767 12.8389C19.7596 12.9911 19.7126 13.1385 19.6386 13.2727C19.5645 13.4068 19.4647 13.525 19.3449 13.6206C19.2252 13.7161 19.0878 13.7872 18.9405 13.8296C18.7933 13.8721 18.6392 13.8851 18.4869 13.868C18.3347 13.8509 18.1873 13.8039 18.0531 13.7299C17.919 13.6558 17.8008 13.556 17.7052 13.4363L15.0461 10.1025C14.8802 9.89612 14.7898 9.63929 14.7897 9.3745C14.7896 9.10972 14.88 8.85284 15.0458 8.64637Z" fill="white"/>
<path d="M2.8125 48H10.6875C11.4334 48 12.1488 47.7037 12.6762 47.1762C13.2037 46.6488 13.5 45.9334 13.5 45.1875V33.0075C13.5 32.2616 13.2037 31.5462 12.6762 31.0188C12.1488 30.4913 11.4334 30.195 10.6875 30.195H8.4375V30.1875H5.0625V30.195H2.8125C2.06658 30.195 1.35121 30.4913 0.823762 31.0188C0.296316 31.5462 0 32.2616 0 33.0075L0 45.1875C0 45.9334 0.296316 46.6488 0.823762 47.1762C1.35121 47.7037 2.06658 48 2.8125 48Z" fill="white"/>
</g>
<defs>
<clipPath id="clip0_60_415">
<rect width="48" height="48" fill="white"/>
</clipPath>
</defs>
</svg>
