<svg width="54" height="54" viewBox="0 0 54 54" fill="none" xmlns="http://www.w3.org/2000/svg">
<g clip-path="url(#clip0_60_367)">
<path d="M46.092 7.90815C40.9923 2.80853 34.212 0 27 0C19.788 0 13.0077 2.80853 7.90805 7.90815C2.80842 13.0078 0 19.788 0 27C0 34.212 2.80842 40.9923 7.90805 46.0919C13.0077 51.1914 19.788 54 27 54C34.212 54 40.9923 51.1915 46.092 46.0919C51.1916 40.9922 54 34.212 54 27C54 19.788 51.1916 13.0077 46.092 7.90815ZM27 48.7004C15.0343 48.7004 5.29959 38.9656 5.29959 27C5.29959 26.9804 5.30023 26.961 5.30033 26.9416C5.30033 26.9366 5.29959 26.9319 5.29959 26.9269C5.29959 26.9186 5.30065 26.9106 5.30086 26.9023C5.35349 15.08 14.9076 5.46159 26.7051 5.30339C26.7298 5.30223 26.7543 5.2997 26.7793 5.2997C26.7942 5.2997 26.8088 5.30149 26.8237 5.30191C26.8825 5.30149 26.9411 5.2997 27.0001 5.2997C38.9659 5.2997 48.7005 15.0345 48.7005 27.0001C48.7005 38.9657 38.9657 48.7004 27 48.7004Z" fill="white"/>
<path d="M43.4834 28.3036C42.6011 28.3036 41.8858 27.5883 41.8858 26.7059C41.8858 25.8236 42.6011 25.1083 43.4834 25.1083H45.4092C44.5047 16.2409 37.3132 9.20647 28.3768 8.54602V10.2224C28.3768 11.1048 27.6615 11.8201 26.7792 11.8201C25.8968 11.8201 25.1815 11.1048 25.1815 10.2224V8.5842C16.3774 9.44693 9.3645 16.5051 8.57106 25.3291H10.2957C11.178 25.3291 11.8933 26.0443 11.8933 26.9267C11.8933 27.809 11.178 28.5243 10.2957 28.5243H8.55798C9.29257 37.4903 16.4461 44.6658 25.4024 45.4354V43.4101C25.4024 42.5277 26.1177 41.8124 27 41.8124C27.8824 41.8124 28.5977 42.5277 28.5977 43.4101V45.4354C37.6273 44.6595 44.8244 37.3722 45.4587 28.3036H43.4834ZM33.4674 22.792L28.1298 28.1297C27.8302 28.4293 27.4239 28.5976 27.0001 28.5976C26.5765 28.5976 26.17 28.4293 25.8705 28.1297L16.5794 18.8386C15.9555 18.2148 15.9555 17.2032 16.5794 16.5793C17.2033 15.9553 18.2148 15.9553 18.8388 16.5793L27.0002 24.7406L31.2082 20.5326C31.8321 19.9087 32.8436 19.9087 33.4676 20.5326C34.0913 21.1565 34.0913 22.1682 33.4674 22.792Z" fill="white"/>
</g>
<defs>
<clipPath id="clip0_60_367">
<rect width="54" height="54" fill="white"/>
</clipPath>
</defs>
</svg>
