<svg width="108" height="17" viewBox="0 0 108 17" fill="none" xmlns="http://www.w3.org/2000/svg">
<path d="M8.75 8L14.6212 3.3335L23.1469 11.6668L30.3937 4.5835L37.6405 11.6668L44.8873 4.5835L52.1341 11.6668L59.3809 4.5835L66.6277 11.6668L73.8745 4.5835L81.1212 11.6668L88.368 4.5835L95.6148 11.6668L100 8" stroke="#E6EFFF" stroke-width="2" stroke-linecap="round" stroke-linejoin="round"/>
<path d="M106.977 5C106.977 7.18775 105.156 9 102.862 9C100.567 9 98.7462 7.18775 98.7462 5C98.7462 2.81225 100.567 1 102.862 1C105.156 1 106.977 2.81225 106.977 5Z" stroke="white" stroke-width="2"/>
<path d="M9.7846 11.6667C9.7846 13.8545 7.96371 15.6667 5.66922 15.6667C3.37472 15.6667 1.55383 13.8545 1.55383 11.6667C1.55383 9.47899 3.37472 7.66675 5.66922 7.66675C7.96371 7.66675 9.7846 9.47899 9.7846 11.6667Z" stroke="white" stroke-width="2"/>
</svg>
