<svg width="17" height="102" viewBox="0 0 17 102" fill="none" xmlns="http://www.w3.org/2000/svg">
<path d="M9.125 94.125L3.77385 88.2005L11.9585 80.2005L5.00154 73.4004L11.9585 66.6004L5.00154 59.8004L11.9585 53.0004L5.00154 46.2004L11.9585 39.4004L5.00154 32.6004L11.9585 25.8004L5.00154 19.0004L11.9585 12.2003L8 8.25" stroke="#E6EFFF" stroke-width="2" stroke-linecap="round" stroke-linejoin="round"/>
<path d="M5.41077 1.60018C7.59226 1.60018 9.32155 3.32289 9.32155 5.40019C9.32155 7.47749 7.59226 9.2002 5.41077 9.2002C3.22928 9.2002 1.49999 7.47749 1.49999 5.40019C1.49999 3.32289 3.22928 1.60018 5.41077 1.60018Z" stroke="white" stroke-width="2"/>
<path d="M11.9585 92.8004C14.14 92.8004 15.8693 94.5231 15.8693 96.6004C15.8693 98.6777 14.14 100.4 11.9585 100.4C9.77698 100.4 8.0477 98.6777 8.0477 96.6004C8.0477 94.5231 9.77698 92.8004 11.9585 92.8004Z" stroke="white" stroke-width="2"/>
</svg>
