<svg width="152" height="148" viewBox="0 0 152 148" fill="none" xmlns="http://www.w3.org/2000/svg">
<g opacity="0.3">
<path d="M0.392303 0H4.48461V4H0.392303V0Z" fill="white"/>
<path d="M24.9461 0H29.0385V4H24.9461V0Z" fill="white"/>
<path d="M49.5 0H53.5923V4H49.5V0Z" fill="white"/>
<path d="M74.0538 0H78.1461V4H74.0538V0Z" fill="white"/>
<path d="M98.6077 0H102.7V4H98.6077V0Z" fill="white"/>
<path d="M123.162 0H127.254V4H123.162V0Z" fill="white"/>
<path d="M147.715 0H151.808V4H147.715V0Z" fill="white"/>
<path d="M0.392303 24H4.48461V28H0.392303V24Z" fill="white"/>
<path d="M24.9461 24H29.0385V28H24.9461V24Z" fill="white"/>
<path d="M49.5 24H53.5923V28H49.5V24Z" fill="white"/>
<path d="M74.0538 24H78.1461V28H74.0538V24Z" fill="white"/>
<path d="M98.6077 24H102.7V28H98.6077V24Z" fill="white"/>
<path d="M123.162 24H127.254V28H123.162V24Z" fill="white"/>
<path d="M147.715 24H151.808V28H147.715V24Z" fill="white"/>
<path d="M0.392303 48H4.48461V52H0.392303V48Z" fill="white"/>
<path d="M24.9461 48H29.0385V52H24.9461V48Z" fill="white"/>
<path d="M49.5 48H53.5923V52H49.5V48Z" fill="white"/>
<path d="M74.0538 48H78.1461V52H74.0538V48Z" fill="white"/>
<path d="M98.6077 48H102.7V52H98.6077V48Z" fill="white"/>
<path d="M123.162 48H127.254V52H123.162V48Z" fill="white"/>
<path d="M147.715 48H151.808V52H147.715V48Z" fill="white"/>
<path d="M0.392303 72H4.48461V76H0.392303V72Z" fill="white"/>
<path d="M24.9461 72H29.0385V76H24.9461V72Z" fill="white"/>
<path d="M49.5 72H53.5923V76H49.5V72Z" fill="white"/>
<path d="M74.0538 72H78.1461V76H74.0538V72Z" fill="white"/>
<path d="M98.6077 72H102.7V76H98.6077V72Z" fill="white"/>
<path d="M123.162 72H127.254V76H123.162V72Z" fill="white"/>
<path d="M147.715 72H151.808V76H147.715V72Z" fill="white"/>
<path d="M0.392303 96H4.48461V100H0.392303V96Z" fill="white"/>
<path d="M24.9461 96H29.0385V100H24.9461V96Z" fill="white"/>
<path d="M49.5 96H53.5923V100H49.5V96Z" fill="white"/>
<path d="M74.0538 96H78.1461V100H74.0538V96Z" fill="white"/>
<path d="M98.6077 96H102.7V100H98.6077V96Z" fill="white"/>
<path d="M123.162 96H127.254V100H123.162V96Z" fill="white"/>
<path d="M147.715 96H151.808V100H147.715V96Z" fill="white"/>
<path d="M0.392303 120H4.48461V124H0.392303V120Z" fill="white"/>
<path d="M24.9461 120H29.0385V124H24.9461V120Z" fill="white"/>
<path d="M49.5 120H53.5923V124H49.5V120Z" fill="white"/>
<path d="M74.0538 120H78.1461V124H74.0538V120Z" fill="white"/>
<path d="M98.6077 120H102.7V124H98.6077V120Z" fill="white"/>
<path d="M123.162 120H127.254V124H123.162V120Z" fill="white"/>
<path d="M147.715 120H151.808V124H147.715V120Z" fill="white"/>
<path d="M0.392303 144H4.48461V148H0.392303V144Z" fill="white"/>
<path d="M24.9461 144H29.0385V148H24.9461V144Z" fill="white"/>
<path d="M49.5 144H53.5923V148H49.5V144Z" fill="white"/>
<path d="M74.0538 144H78.1461V148H74.0538V144Z" fill="white"/>
<path d="M98.6077 144H102.7V148H98.6077V144Z" fill="white"/>
<path d="M123.162 144H127.254V148H123.162V144Z" fill="white"/>
<path d="M147.715 144H151.808V148H147.715V144Z" fill="white"/>
</g>
</svg>
