<svg width="55" height="55" viewBox="0 0 55 55" fill="none" xmlns="http://www.w3.org/2000/svg">
<path d="M50.7568 22.1289H37.0068C36.7705 22.1289 36.5772 22.3223 36.5772 22.5586V25.1367C36.5772 25.373 36.7705 25.5664 37.0068 25.5664H50.7568C50.9932 25.5664 51.1865 25.373 51.1865 25.1367V22.5586C51.1865 22.3223 50.9932 22.1289 50.7568 22.1289ZM43.5596 29.4336H37.0068C36.7705 29.4336 36.5772 29.627 36.5772 29.8633V32.4414C36.5772 32.6777 36.7705 32.8711 37.0068 32.8711H43.5596C43.7959 32.8711 43.9893 32.6777 43.9893 32.4414V29.8633C43.9893 29.627 43.7959 29.4336 43.5596 29.4336ZM25.6362 17.3218H23.3105C22.9775 17.3218 22.709 17.5903 22.709 17.9233V31.2437C22.709 31.437 22.8003 31.6143 22.9561 31.7271L30.9536 37.5601C31.2222 37.7534 31.5981 37.6997 31.7915 37.4312L33.1719 35.5459V35.5405C33.3652 35.272 33.3062 34.896 33.0376 34.7026L26.2324 29.7827V17.9233C26.2378 17.5903 25.9639 17.3218 25.6362 17.3218Z" fill="#EEB600"/>
<path d="M43.2265 36.1958H40.122C39.8213 36.1958 39.5366 36.3516 39.3755 36.6094C38.6933 37.689 37.8984 38.688 36.9853 39.6011C35.4116 41.1748 33.5801 42.4101 31.5444 43.2695C29.4336 44.1611 27.1938 44.6123 24.8843 44.6123C22.5693 44.6123 20.3296 44.1611 18.2241 43.2695C16.1885 42.4101 14.3569 41.1748 12.7832 39.6011C11.2094 38.0273 9.9741 36.1958 9.11472 34.1601C8.22312 32.0547 7.77195 29.8149 7.77195 27.5C7.77195 25.185 8.22312 22.9507 9.11472 20.8398C9.9741 18.8042 11.2094 16.9726 12.7832 15.3989C14.3569 13.8252 16.1885 12.5898 18.2241 11.7305C20.3296 10.8389 22.5747 10.3877 24.8843 10.3877C27.1992 10.3877 29.4389 10.8389 31.5444 11.7305C33.5801 12.5898 35.4116 13.8252 36.9853 15.3989C37.8984 16.312 38.6933 17.311 39.3755 18.3906C39.5366 18.6484 39.8213 18.8042 40.122 18.8042H43.2265C43.5971 18.8042 43.8335 18.4175 43.667 18.0898C40.165 11.1235 33.0644 6.59569 25.1367 6.50438C13.5298 6.35937 3.88865 15.8608 3.86716 27.457C3.84568 39.0747 13.2612 48.501 24.8789 48.501C32.9087 48.501 40.1274 43.957 43.667 36.9101C43.8335 36.5825 43.5918 36.1958 43.2265 36.1958Z" fill="#EEB600"/>
</svg>
