<svg width="131" height="40" viewBox="0 0 131 40" fill="none" xmlns="http://www.w3.org/2000/svg">
<path fill-rule="evenodd" clip-rule="evenodd" d="M120.003 16.0363H114.886C114.027 16.0871 113.788 16.3001 113.788 17.3427V20.2168H120.003V16.0363ZM122.727 13.7348V26.2675H120.003V22.665H113.788V26.2675H111.063V16.4424C111.063 14.7064 111.766 13.7348 113.788 13.7348H122.727ZM108.339 16.44V23.2225C108.339 25.3817 107.126 26.2651 105.614 26.2651H97.0209V13.7325H105.614C107.935 13.7325 108.339 15.208 108.339 16.44V16.44ZM105.582 17.1943C105.582 16.5077 105.163 16.034 104.431 16.034H99.7456V23.8647L104.431 23.8644C105.498 23.8102 105.582 23.1703 105.582 22.6626V17.1943ZM41.4852 13.7325H44.2096V18.6723H50.305V13.7325H53.0294V26.2648H50.305V21.1504H44.2096V26.2648H41.4852V13.7325V13.7325ZM57.6987 13.7325L61.1142 18.8559L64.4885 13.7325H67.7966L62.475 21.7449V26.2651H59.7503V21.7442L54.3916 13.7325H57.6987ZM83.0897 13.7325H91.8692C93.1203 13.7325 94.3318 13.9081 94.2965 16.44V26.2651H91.5721V17.3403C91.5721 16.2611 91.4426 16.034 90.5958 16.034H85.8148V26.2651H83.0897V13.7325ZM128.177 13.7348V26.2675H125.452V13.7348H128.177ZM69.1592 26.2651H77.938C79.6834 26.2651 80.401 25.7601 80.3656 23.2437V13.7325H77.6412V22.6791C77.6412 23.7517 77.5117 23.8819 76.6649 23.8819H71.8839L71.8836 13.7325H69.1592V26.2651Z" fill="#003984"/>
<path fill-rule="evenodd" clip-rule="evenodd" d="M22.2546 21.8579C22.4948 23.0993 21.8441 24.1305 21.3035 25.1314C20.703 26.0626 19.7118 26.863 18.5205 26.7432C15.8473 26.7032 13.2346 26.2927 10.8116 25.5617C10.7016 25.5317 10.5916 25.4614 10.5314 25.3615C10.4812 25.2212 10.5515 25.091 10.6515 25.0012C12.8642 23.209 15.4971 22.3784 18.1 21.507C19.0709 21.2268 20.1024 20.9263 21.1935 21.0666C21.6436 21.1268 22.0941 21.4374 22.2546 21.8579V21.8579ZM31.3748 16.5521C32.6162 17.5731 33.7376 18.965 33.3571 20.6468C32.7364 23.1296 30.0335 24.4511 27.881 25.2918C26.7096 25.6824 25.5284 26.0831 24.2469 26.2032C24.1668 26.1931 24.0366 26.213 24.0164 26.0929L24.0464 25.9529C25.8685 23.9004 27.2499 21.5982 28.4617 19.2654C29.0222 18.214 29.543 17.1331 30.0234 16.0717C30.0934 15.9916 30.1637 15.9516 30.2437 15.9216C30.6939 15.9613 31.0145 16.3119 31.3748 16.5521V16.5521ZM13.9047 13.9091L13.8647 14.0591C11.2318 17.0524 9.49986 20.5263 7.85809 23.9801C7.53781 24.2805 7.22728 23.8798 6.93695 23.7496C5.47516 22.7888 4.15367 21.2369 4.53417 19.3949C5.14479 16.9925 7.61754 15.711 9.68019 14.8403C10.9014 14.3798 12.1731 14.0093 13.5145 13.7991C13.6548 13.7987 13.8348 13.7789 13.9047 13.9091ZM26.97 14.3895C27.12 14.4696 27.3003 14.4995 27.3905 14.6496C27.4706 14.8198 27.3104 14.9298 27.2203 15.0402C25.1479 16.6618 22.7754 17.5631 20.3524 18.354C19.1207 18.6544 17.8793 19.1951 16.508 18.8946C16.1874 18.8146 15.8974 18.6043 15.7171 18.2938C15.3766 17.3528 15.8372 16.3718 16.2375 15.5509C16.7681 14.5197 17.7094 13.3082 19.0107 13.2884C21.8138 13.2682 24.4568 13.6887 26.97 14.3895V14.3895ZM30.4338 14.4696C32.5564 15.6309 34.9591 17.6731 34.7088 20.3961C34.4185 22.919 32.0658 24.6809 29.9635 25.7423C23.8264 28.6756 15.2067 28.7655 8.8694 26.2029C6.72668 25.312 4.3239 23.7803 3.42261 21.4774C2.73192 19.5853 3.57265 17.6132 4.98465 16.3018C7.93782 13.6188 11.7021 12.6979 15.5768 12.1671C19.7818 11.6564 24.2065 12.1068 27.9708 13.3984C28.8119 13.7089 29.6429 14.0494 30.4338 14.4696Z" fill="#003984"/>
</svg>
