<svg width="131" height="40" viewBox="0 0 131 40" fill="none" xmlns="http://www.w3.org/2000/svg">
<g clip-path="url(#clip0_106_44)">
<path fill-rule="evenodd" clip-rule="evenodd" d="M15.3231 7.42768L15.3223 7.3796V3.53113H19.1627V31.7579L19.1643 31.8459V35.6544H15.3223V31.806L15.3231 31.7579V7.42768Z" fill="#3781C2"/>
<path fill-rule="evenodd" clip-rule="evenodd" d="M54.3726 23.9558C54.4712 29.7941 58.0833 34.4631 62.4411 34.3849C66.798 34.3067 70.2496 29.5106 70.151 23.6722C70.0516 17.8331 66.4395 13.1641 62.0817 13.2432C57.7248 13.3214 54.2732 18.1175 54.3726 23.9558ZM86.1699 16.8969C86.2701 17.1193 86.0322 16.5644 86.0322 16.5644L86.1699 16.8969ZM88.7872 41.0674C88.9632 40.7659 89.2084 40.3047 89.5002 39.7286L88.7872 41.0674ZM89.0129 14.8826C89.0593 15.0122 89.1131 15.1474 89.1734 15.29L90.4665 18.4752L89.0129 14.8826ZM72.9215 30.917C75.2951 33.0844 77.4324 34.2048 80.1654 34.2048C82.9627 34.226 85.4496 32.8498 85.4496 30.2007C85.4496 27.9901 83.5013 26.6969 80.0203 25.2164C77.0706 23.9322 74.8755 23.0318 73.7282 21.1731C73.8683 21.9806 73.9417 22.815 73.9417 23.669C73.9417 30.8387 68.7723 36.6518 62.3954 36.6518C56.0185 36.6518 50.8492 30.8387 50.8492 23.669C50.8492 19.3463 52.7282 15.5174 55.6168 13.1576H47.8034V31.7579L47.8041 31.832V35.6544H44.3338V31.9567C44.3362 31.8915 44.337 31.8255 44.337 31.7579V13.1576H41.2773V10.8166H44.3818C44.7827 6.09379 47.6909 3.42275 51.717 3.42275C54.3277 3.42275 55.761 3.69654 56.5889 4.08196V7.28345C56.5759 7.5222 56.5759 7.66805 56.5759 7.66805C56.54 7.66398 56.4545 7.66234 56.4545 7.66234C55.198 6.49631 53.9586 5.62851 51.0635 5.63177C48.7575 5.63177 47.2322 7.51649 47.7651 10.8166H60.7536C61.2905 10.731 61.8381 10.6862 62.3954 10.6862C67.0212 10.6862 71.0124 13.7451 72.8547 18.1631C72.8376 17.9179 72.8294 17.662 72.8294 17.3948C72.8294 12.7852 77.2646 10.8247 81.8717 10.8345C82.0477 10.8337 82.2204 10.8345 82.3899 10.8386C84.0114 10.8125 86.3215 11.3446 87.732 11.7178L90.4665 18.4752L94.3745 28.0642L94.8332 29.6043L95.3442 28.0642L100.286 15.7561C101.198 12.3672 104.807 10.9005 108.793 10.9086C110.775 10.8997 112.238 11.1401 113.993 11.761V15.4832C111.832 13.9032 110.285 12.9849 107.833 12.9849C105.678 12.9849 103.088 13.9447 103.088 17.1356C103.046 19.5337 104.476 19.9721 108.672 22.067C112.122 23.5737 115.304 25.2367 115.322 29.0885C115.322 35.5102 109.033 36.6224 105.972 36.6322C103.239 36.6322 100.734 35.9535 99.3409 34.7874V30.5478L99.565 30.7344C102.051 33.0698 104.248 34.2798 107.087 34.2798C109.885 34.301 112.371 32.9239 112.371 30.2749C112.371 28.0642 110.423 26.7711 106.942 25.2905C103.615 23.8417 101.432 22.8819 100.54 20.4822C99.1828 23.8108 92.872 39.2723 91.3865 42.5773H87.9837L89.5238 39.6846C90.3769 37.9946 91.6179 35.3432 92.7204 32.8066L86.1699 16.8969C86.1259 16.7999 86.0184 16.5555 85.7992 16.0543C85.2964 14.9022 84.8287 13.838 83.4141 13.3018C82.6564 13.0452 81.8497 12.9107 80.9118 12.9107C78.7566 12.9107 76 13.8706 76 17.0615C75.9584 19.4595 77.5538 19.8979 81.7511 21.9921C85.2003 23.4995 88.3822 25.1626 88.4009 29.0143C88.4009 35.436 82.1112 36.5475 79.0499 36.5581C76.62 36.5581 74.3695 36.0211 72.9215 35.0824V30.917Z" fill="#3781C2"/>
<path fill-rule="evenodd" clip-rule="evenodd" d="M26.3292 11.0561L26.3716 13.8657L26.3692 14.0547L26.4066 14.0539C26.4514 13.9366 26.5117 13.8372 26.5688 13.763C27.9793 12.2417 29.7572 10.7302 33.983 10.7302C38.0278 10.7302 40.6459 14.1875 40.751 16.364L40.7551 31.7579V31.8345V35.6544H37.2888V31.0644L37.2879 17.9594C37.2879 15.246 34.9208 13.2839 32.0233 13.2839C29.6146 13.2839 26.5231 15.4644 26.4205 17.6718V31.7619L26.4221 31.8654V35.6577H22.9541V14.291L22.955 11.0561H26.3292Z" fill="#3781C2"/>
</g>
<defs>
<clipPath id="clip0_106_44">
<rect width="130" height="40" fill="white" transform="translate(0.322327)"/>
</clipPath>
</defs>
</svg>
