<svg width="50" height="50" viewBox="0 0 50 50" fill="none" xmlns="http://www.w3.org/2000/svg">
<g clip-path="url(#clip0_26_338)">
<path d="M7.10901 18.38C2.88201 25.715 5.56901 36.847 10.244 43.596C12.577 46.97 14.944 49.996 18.175 49.996C18.236 49.996 18.297 49.996 18.36 49.996C19.6394 49.9131 20.89 49.5798 22.041 49.015C23.3984 48.3476 24.8885 47.9942 26.401 47.981C27.8424 47.9945 29.2617 48.3365 30.551 48.981C31.783 49.6067 33.1452 49.9332 34.527 49.934C38.172 49.866 40.409 46.598 42.384 43.714C43.8611 41.5403 45.0198 39.1667 45.825 36.665L45.839 36.621C45.8703 36.5254 45.8654 36.4217 45.8252 36.3295C45.785 36.2373 45.7123 36.1631 45.621 36.121L45.591 36.108C43.7169 35.3044 42.1188 33.9699 40.994 32.269C39.8692 30.5681 39.2668 28.5752 39.261 26.536C39.2856 24.7315 39.7639 22.9623 40.6518 21.3912C41.5398 19.8202 42.8088 18.4978 44.342 17.546L44.382 17.521C44.428 17.4913 44.4676 17.4527 44.4985 17.4074C44.5293 17.3622 44.5508 17.3112 44.5616 17.2575C44.5724 17.2038 44.5723 17.1485 44.5614 17.0948C44.5505 17.0411 44.5289 16.9902 44.498 16.945C43.4467 15.4386 42.0588 14.1979 40.4446 13.3211C38.8303 12.4444 37.034 11.9558 35.198 11.894C34.934 11.868 34.661 11.854 34.387 11.854C32.3671 11.9715 30.387 12.466 28.549 13.312C27.6651 13.7352 26.7203 14.0173 25.749 14.148C24.7445 14.0279 23.7669 13.742 22.856 13.302C21.253 12.5523 19.5225 12.1129 17.756 12.007H17.627C15.4732 12.0726 13.3729 12.6939 11.53 13.8105C9.68715 14.9272 8.1642 16.5013 7.10901 18.38Z" fill="black"/>
<path d="M35.201 -1.73031e-05C32.2858 0.274397 29.5876 1.65844 27.664 3.86598C26.7022 4.9377 25.9665 6.19254 25.5012 7.55533C25.0359 8.91812 24.8505 10.3608 24.956 11.797C24.9683 11.89 25.0121 11.976 25.0802 12.0406C25.1483 12.1052 25.2364 12.1446 25.33 12.152C25.504 12.166 25.682 12.172 25.86 12.173C27.2376 12.108 28.5853 11.7487 29.8124 11.1193C31.0395 10.4899 32.1175 9.60492 32.974 8.52398C34.8977 6.25961 35.85 3.32755 35.624 0.364983C35.6122 0.262125 35.5622 0.167462 35.4838 0.099829C35.4054 0.0321955 35.3045 -0.00345069 35.201 -1.73031e-05Z" fill="black"/>
</g>
<defs>
<clipPath id="clip0_26_338">
<rect width="50" height="50" fill="white"/>
</clipPath>
</defs>
</svg>
