<svg width="130" height="40" viewBox="0 0 130 40" fill="none" xmlns="http://www.w3.org/2000/svg">
<path d="M46.0856 7.80332L50.0447 7.71393L50.1086 19.0421C50.1213 21.7497 46.1877 26.0281 39.1635 22.4777L41.3985 20.8174C42.8416 22.1839 46.1367 22.1839 46.1367 19.1315L46.0856 7.80332ZM59.9425 23.8187C57.3372 23.8187 55.2427 23.1162 53.659 21.7241C52.0754 20.3193 51.2835 18.4802 51.2835 16.1814C51.2835 13.6399 52.0754 11.5964 53.659 10.0511C55.2427 8.50575 57.3372 7.7267 59.9425 7.7267C62.5607 7.7267 64.6552 8.42912 66.2388 9.8212C67.8225 11.2261 68.6143 13.0651 68.6143 15.364C68.6143 17.9055 67.8225 19.9361 66.2388 21.4943C64.6552 23.0396 62.5607 23.8187 59.9425 23.8187ZM59.9808 21.8008C64.0805 21.4815 64.9234 18.378 64.9489 15.4278C64.9745 12.5415 63.3525 9.75735 59.9425 9.61686C56.0345 9.80843 54.9361 13.2439 54.9361 16.1303C54.9361 19.0166 56.5581 21.6092 59.9808 21.8008ZM79.5849 10.5236C77.8352 8.90166 72.7139 8.85058 73.0587 11.06C73.1992 11.9285 76.4176 13.4355 77.2733 13.857C80.0447 15.2235 82.8033 16.4496 82.599 19.0166C81.3346 26.4751 70.7599 23.6271 68.1034 21.2516L69.5083 19.1826C70.9132 20.5236 72.3691 21.3665 74.3359 21.6347C76.954 21.9923 78.8186 21.2133 78.8314 20.0255C78.8825 16.8072 69.6488 16.8199 69.4444 11.7497C69.2912 8.12261 73.6207 7.50958 76.507 7.71393C78.0779 7.82887 79.8276 8.02044 80.8748 8.62069L79.5849 10.5236ZM98.2056 21.7114C96.4559 22.9374 95.6897 23.5121 92.2925 23.7293C87.4393 23.6526 83.6207 20.9706 83.6207 15.2618C83.6207 9.96169 87.9502 7.84164 92.0243 7.73947C94.4764 7.67561 96.8135 8.28864 98.0779 9.8212L96.9796 11.7497C96.0089 10.4342 93.825 9.28481 92.0753 9.36143C88.6271 9.51469 87.3372 12.1201 87.2733 15.7471C87.1584 22.5287 93.6207 23.3844 96.7114 19.3997L98.2056 21.7114ZM106.328 23.8187C103.723 23.8187 101.628 23.1162 100.045 21.7241C98.461 20.3193 97.6692 18.4802 97.6692 16.1814C97.6692 13.6399 98.461 11.5964 100.045 10.0511C101.628 8.50575 103.723 7.7267 106.328 7.7267C108.946 7.7267 111.041 8.42912 112.625 9.83398C114.208 11.2388 115 13.0779 115 15.3768C115 17.9183 114.208 19.9489 112.625 21.507C111.041 23.0396 108.946 23.8187 106.328 23.8187ZM106.367 21.8008C110.466 21.4815 111.309 18.378 111.335 15.4278C111.36 12.5415 109.738 9.75735 106.328 9.61686C102.42 9.80843 101.322 13.2439 101.322 16.1303C101.322 19.0166 102.944 21.6092 106.367 21.8008ZM21.424 7.53513C28.2822 8.42912 33.5441 13.6654 33.5441 20C33.5441 26.3346 28.2822 31.5709 21.424 32.4649V24.0102C25.4215 23.3844 28.461 20.2427 28.461 16.4496C28.461 12.6565 25.4215 9.50192 21.424 8.88889V7.53513V7.53513ZM21.424 10.0766C17.7969 10.5364 15 13.2312 15 16.4879C15 19.7446 17.7969 22.4393 21.424 22.8991V18.5568C19.304 18.2376 17.6948 16.6156 17.6948 14.6743C17.6948 12.7203 19.304 11.1111 21.424 10.7918V10.0766ZM21.424 11.7241C23.2759 11.954 24.6935 13.3333 24.6935 14.9808C24.6935 16.6411 23.2759 18.0077 21.424 18.2376V16.0409C22.4968 15.8748 23.3269 15.0575 23.3269 14.0613C23.3269 13.0651 22.5096 12.2478 21.424 12.0817V11.7241V11.7241Z" fill="#C4122F"/>
<path d="M47.3755 30C47.3755 30.8429 47.069 31.0856 46.5581 31.0856C46.3538 31.0856 46.1494 31.0473 46.0089 30.9962L45.894 31.7114C46.0856 31.788 46.3921 31.8263 46.6347 31.8263C47.6053 31.8263 48.2567 31.3793 48.2567 30.0256V26.8582H47.3627V30H47.3755ZM55.3831 28.8506H53.544V27.5862H55.4981V26.8582H52.6628V31.7369H55.613V31.0089H53.5568V29.5786H55.3959V28.8506H55.3831ZM61.6028 31.7497L62.1647 29.4508C62.3052 28.8889 62.4074 28.4164 62.4968 27.9055H62.5096C62.5734 28.4291 62.65 28.9017 62.7778 29.4508L63.2886 31.7497H64.2465L65.5619 26.871H64.6552L64.1443 29.0805C64.0166 29.6807 63.9016 30.2299 63.8122 30.7663H63.7867C63.7101 30.2427 63.6079 29.6935 63.493 29.1188L63.0076 26.871H62.0753L61.5517 29.0805C61.4112 29.6935 61.2707 30.281 61.1941 30.7918H61.1813C61.1047 30.3065 60.9898 29.6807 60.8621 29.0932L60.4023 26.871H59.4444L60.6449 31.7497H61.6028V31.7497ZM72.2797 28.8506H70.4406V27.5862H72.3946V26.8582H69.5594V31.7369H72.5096V31.0089H70.4534V29.5786H72.2925V28.8506H72.2797ZM76.6858 31.7497H79.5849V31.0089H77.5798V26.871H76.6858V31.7497ZM83.6718 31.7497H86.5709V31.0089H84.5658V26.871H83.6718V31.7497ZM93.378 28.8506H91.5389V27.5862H93.493V26.8582H90.6577V31.7369H93.6079V31.0089H91.5517V29.5786H93.3908V28.8506H93.378ZM97.7841 31.7497H98.6654V29.7446H99.1124C99.6232 29.7573 99.8531 29.9617 99.9936 30.6003C100.134 31.2133 100.249 31.6092 100.326 31.7497H101.245C101.143 31.5581 101.015 30.9962 100.862 30.3831C100.734 29.9106 100.53 29.5658 100.185 29.4381V29.4125C100.645 29.2465 101.066 28.8123 101.066 28.1865C101.066 27.7778 100.913 27.433 100.645 27.2031C100.313 26.9221 99.8403 26.8072 99.1379 26.8072C98.6271 26.8072 98.129 26.8455 97.7841 26.9093V31.7497V31.7497ZM98.6781 27.5479C98.7675 27.5224 98.9463 27.5096 99.2273 27.5096C99.802 27.5096 100.185 27.7522 100.185 28.2886C100.185 28.774 99.802 29.0932 99.2018 29.0932H98.6781V27.5479V27.5479ZM105.102 31.5198C105.37 31.6731 105.907 31.8263 106.418 31.8263C107.682 31.8263 108.269 31.1494 108.269 30.3576C108.269 29.6552 107.861 29.221 107.005 28.9144C106.354 28.659 106.073 28.493 106.073 28.1098C106.073 27.8289 106.315 27.5224 106.89 27.5224C107.35 27.5224 107.682 27.6628 107.861 27.7522L108.078 27.037C107.822 26.9093 107.427 26.7944 106.903 26.7944C105.843 26.7944 105.179 27.4074 105.179 28.1992C105.179 28.9017 105.69 29.3359 106.494 29.6169C107.12 29.8467 107.363 30.0639 107.363 30.4342C107.363 30.8301 107.043 31.0983 106.469 31.0983C106.009 31.0983 105.575 30.9579 105.281 30.7918L105.102 31.5198Z" fill="black"/>
</svg>
