<svg width="50" height="50" viewBox="0 0 50 50" fill="none" xmlns="http://www.w3.org/2000/svg">
<path d="M41.941 26.1509C41.944 26.1169 41.9391 26.0826 41.9268 26.0507C41.9145 26.0188 41.8951 25.9901 41.87 25.9669C41.7891 25.9165 41.694 25.8937 41.599 25.9019H41.416V26.4019H41.636C41.836 26.4019 41.936 26.3179 41.936 26.1499L41.941 26.1509ZM42.225 27.1959H41.974L41.814 26.8429C41.733 26.6659 41.646 26.5779 41.551 26.5779H41.416V27.1959H41.209V25.7259H41.623C41.7723 25.7147 41.9206 25.7584 42.04 25.8489C42.0794 25.8833 42.1107 25.9259 42.1316 25.9738C42.1526 26.0217 42.1626 26.0737 42.161 26.1259C42.1629 26.2214 42.1269 26.3138 42.061 26.3829C41.9871 26.4593 41.8907 26.51 41.786 26.5279V26.5339C41.868 26.5529 41.95 26.6429 42.029 26.8059L42.223 27.1969L42.225 27.1959ZM42.683 26.4749C42.6858 26.3396 42.6607 26.2052 42.609 26.0801C42.5574 25.9549 42.4804 25.8419 42.383 25.7479C42.2635 25.6284 42.1163 25.5401 41.9545 25.4911C41.7928 25.4421 41.6214 25.4337 41.4556 25.4668C41.2898 25.4999 41.1348 25.5734 41.0042 25.6808C40.8737 25.7881 40.7716 25.9261 40.7072 26.0824C40.6427 26.2386 40.6179 26.4084 40.6348 26.5766C40.6517 26.7448 40.7098 26.9062 40.8041 27.0466C40.8983 27.1869 41.0258 27.3018 41.1751 27.381C41.3244 27.4603 41.4909 27.5015 41.66 27.5009C41.7946 27.502 41.9281 27.4762 42.0526 27.425C42.1771 27.3738 42.2902 27.2982 42.3851 27.2027C42.48 27.1073 42.5549 26.9938 42.6053 26.869C42.6558 26.7442 42.6809 26.6105 42.679 26.4759L42.683 26.4749ZM42.822 26.4689C42.8254 26.6208 42.7972 26.7717 42.7394 26.9121C42.6816 27.0525 42.5953 27.1795 42.486 27.2849C42.2633 27.4959 41.9687 27.6142 41.662 27.6161C41.3552 27.618 41.0592 27.5031 40.834 27.2949C40.6231 27.0751 40.5058 26.7819 40.5069 26.4772C40.5081 26.1726 40.6275 25.8802 40.84 25.6619C41.0606 25.4506 41.3535 25.3315 41.659 25.3287C41.9645 25.3259 42.2595 25.4397 42.484 25.6469C42.5949 25.7525 42.6823 25.8803 42.7406 26.0219C42.7988 26.1635 42.8266 26.3159 42.822 26.4689Z" fill="black"/>
<path d="M11.393 30.5731H10.681V26.4911C10.681 26.1691 10.702 25.7771 10.74 25.3141H10.724C10.6791 25.5146 10.6182 25.7113 10.542 25.9021L8.471 30.5731H8.124L6.048 25.9361C5.96725 25.7351 5.90597 25.5268 5.865 25.3141H5.851C5.873 25.5571 5.885 25.9521 5.885 26.4991V30.5731H5.198V24.4961H6.138L8.002 28.7311C8.1111 28.9666 8.20334 29.2096 8.278 29.4581H8.308C8.429 29.1261 8.526 28.8771 8.599 28.7131L10.499 24.4951H11.391V30.5731H11.393Z" fill="black"/>
<path d="M13.59 30.5701H12.89V26.2331H13.59V30.5701ZM13.71 24.6781C13.7111 24.7382 13.6998 24.7978 13.6768 24.8532C13.6537 24.9086 13.6194 24.9586 13.576 25.0001C13.534 25.043 13.4836 25.0767 13.4281 25.0994C13.3726 25.1221 13.313 25.1333 13.253 25.1321C13.1939 25.1331 13.1352 25.1224 13.0803 25.1006C13.0254 25.0788 12.9753 25.0464 12.933 25.0051C12.8893 24.9629 12.8549 24.912 12.8322 24.8557C12.8095 24.7993 12.7988 24.7389 12.801 24.6781C12.7998 24.6187 12.8109 24.5597 12.8337 24.5048C12.8564 24.4499 12.8902 24.4003 12.933 24.3591C13.0197 24.2765 13.1348 24.2305 13.2545 24.2305C13.3742 24.2305 13.4893 24.2765 13.576 24.3591C13.6193 24.4001 13.6535 24.4496 13.6766 24.5045C13.6997 24.5594 13.711 24.6186 13.71 24.6781Z" fill="black"/>
<path d="M17.915 30.3689C17.5553 30.5796 17.1437 30.6853 16.727 30.6739C16.4472 30.6841 16.1686 30.6341 15.9098 30.5273C15.651 30.4205 15.4182 30.2594 15.227 30.0549C14.8432 29.6323 14.6398 29.0764 14.66 28.5059C14.6309 27.8735 14.851 27.2549 15.273 26.7829C15.4843 26.5622 15.7404 26.3893 16.0242 26.276C16.308 26.1626 16.6128 26.1115 16.918 26.1259C17.2639 26.1201 17.6064 26.1955 17.918 26.3459V27.0589C17.6182 26.8394 17.2566 26.7204 16.885 26.7189C16.6822 26.7124 16.4804 26.7504 16.2938 26.8302C16.1072 26.9101 15.9404 27.0298 15.805 27.1809C15.5021 27.5295 15.3455 27.9817 15.368 28.4429C15.3441 28.8792 15.4871 29.3083 15.768 29.6429C15.9042 29.7898 16.0707 29.9052 16.256 29.9812C16.4413 30.0572 16.6409 30.0919 16.841 30.0829C17.2281 30.08 17.6033 29.9488 17.908 29.7099V30.3699L17.915 30.3689Z" fill="black"/>
<path d="M21.227 26.936C21.028 26.8119 20.7893 26.7678 20.5591 26.8125C20.3289 26.8572 20.1241 26.9875 19.986 27.177C19.7499 27.5239 19.6353 27.9392 19.66 28.358V30.569H18.962V26.232H19.662V27.126H19.679C19.761 26.8412 19.9243 26.5864 20.149 26.393C20.3359 26.239 20.5708 26.1552 20.813 26.156C20.9541 26.1494 21.0953 26.1694 21.229 26.215V26.935L21.227 26.936Z" fill="black"/>
<path d="M25.096 28.4081C25.1271 27.9533 24.9936 27.5026 24.72 27.1381C24.5918 26.9965 24.4336 26.8855 24.2569 26.813C24.0803 26.7405 23.8896 26.7084 23.699 26.7191C23.5058 26.7106 23.313 26.7441 23.134 26.8173C22.955 26.8905 22.7939 27.0016 22.662 27.1431C22.3681 27.5032 22.2212 27.9612 22.251 28.4251C22.2241 28.8657 22.3644 29.3004 22.644 29.6421C22.7766 29.7882 22.9399 29.9033 23.122 29.9791C23.3042 30.055 23.5008 30.0898 23.698 30.0811C23.8947 30.0934 24.0916 30.0596 24.273 29.9826C24.4544 29.9055 24.6153 29.7872 24.743 29.6371C24.9988 29.2803 25.1231 28.8461 25.095 28.4081M25.807 28.3841C25.8366 28.9933 25.6271 29.5901 25.223 30.0471C25.0201 30.2578 24.7745 30.4227 24.5027 30.5308C24.2309 30.639 23.9392 30.6878 23.647 30.6741C23.3588 30.6879 23.0711 30.639 22.8036 30.5307C22.5362 30.4225 22.2954 30.2575 22.098 30.0471C21.7111 29.6065 21.5106 29.0327 21.539 28.4471C21.519 28.1275 21.5651 27.8072 21.6745 27.5062C21.784 27.2053 21.9543 26.9301 22.175 26.6981C22.3856 26.5018 22.6334 26.3498 22.9037 26.2508C23.1741 26.1519 23.4615 26.1081 23.749 26.1221C24.03 26.1067 24.3111 26.1523 24.5728 26.2559C24.8345 26.3595 25.0706 26.5185 25.265 26.7221C25.6482 27.1867 25.8421 27.7787 25.808 28.3801" fill="black"/>
<path d="M29.251 29.4071C29.2543 29.5749 29.2201 29.7414 29.1509 29.8943C29.0817 30.0472 28.9792 30.1828 28.851 30.2911C28.5149 30.5604 28.0911 30.6961 27.661 30.6721C27.2856 30.6815 26.9143 30.5915 26.585 30.4111V29.6641C26.8997 29.9314 27.2991 30.0785 27.712 30.0791C28.262 30.0791 28.537 29.8771 28.537 29.4731C28.5394 29.3941 28.5243 29.3157 28.4929 29.2432C28.4614 29.1708 28.4143 29.1062 28.355 29.0541C28.1378 28.8877 27.8981 28.753 27.643 28.6541C27.354 28.5442 27.0904 28.3768 26.868 28.1621C26.6667 27.9181 26.5698 27.6046 26.5985 27.2896C26.6271 26.9746 26.779 26.6837 27.021 26.4801C27.3325 26.2319 27.7231 26.1044 28.121 26.1211C28.4414 26.1147 28.7588 26.1832 29.048 26.3211V27.0211C28.7619 26.8147 28.4167 26.7063 28.064 26.7121C27.8659 26.7025 27.6707 26.7622 27.512 26.8811C27.4456 26.9327 27.3921 26.999 27.3559 27.0749C27.3196 27.1507 27.3015 27.234 27.303 27.3181C27.2983 27.4009 27.3114 27.4837 27.3414 27.561C27.3714 27.6382 27.4177 27.7082 27.477 27.7661C27.6741 27.919 27.8937 28.0404 28.128 28.1261C28.4224 28.2349 28.6938 28.3981 28.928 28.6071C29.0335 28.7111 29.1163 28.836 29.171 28.9737C29.2257 29.1114 29.2513 29.259 29.246 29.4071" fill="black"/>
<path d="M33.492 28.4081C33.5235 27.9532 33.3896 27.5022 33.115 27.1381C32.987 26.9967 32.8289 26.8856 32.6524 26.8131C32.4759 26.7407 32.2855 26.7085 32.095 26.7191C31.9016 26.7109 31.7088 26.7445 31.5297 26.8177C31.3505 26.8909 31.1893 27.0019 31.057 27.1431C30.764 27.5037 30.618 27.9615 30.648 28.4251C30.6216 28.8654 30.7611 29.2996 31.039 29.6421C31.1724 29.788 31.3362 29.903 31.5188 29.9788C31.7014 30.0546 31.8984 30.0896 32.096 30.0811C32.2927 30.0935 32.4896 30.0598 32.671 29.9827C32.8524 29.9057 33.0134 29.7873 33.141 29.6371C33.3964 29.2803 33.5204 28.846 33.492 28.4081ZM34.206 28.3841C34.2349 28.9938 34.0242 29.5907 33.619 30.0471C33.4164 30.258 33.171 30.423 32.8994 30.5311C32.6277 30.6393 32.3361 30.688 32.044 30.6741C31.7556 30.6881 31.4677 30.6393 31.2001 30.531C30.9324 30.4228 30.6915 30.2577 30.494 30.0471C30.107 29.6066 29.9065 29.0328 29.935 28.4471C29.9153 28.1276 29.9615 27.8075 30.0708 27.5066C30.18 27.2058 30.3499 26.9306 30.57 26.6981C30.7809 26.5017 31.029 26.3496 31.2997 26.2507C31.5704 26.1517 31.8582 26.108 32.146 26.1221C32.4269 26.1066 32.7078 26.1521 32.9694 26.2557C33.231 26.3593 33.4669 26.5184 33.661 26.7221C34.0456 27.1861 34.2406 27.7784 34.207 28.3801" fill="black"/>
<path d="M37.267 24.758C37.1258 24.6808 36.9669 24.6416 36.806 24.644C36.32 24.644 36.079 24.95 36.079 25.563V26.232H37.095V26.82H36.079V30.572H35.379V26.82H34.641V26.232H35.379V25.532C35.3673 25.324 35.401 25.1159 35.4776 24.9222C35.5543 24.7285 35.6721 24.5537 35.823 24.41C36.0777 24.1755 36.4139 24.0496 36.76 24.059C36.93 24.0528 37.0996 24.0786 37.26 24.135V24.762L37.267 24.758Z" fill="black"/>
<path d="M40.008 30.5222C39.8065 30.6247 39.5819 30.6733 39.356 30.6632C38.5987 30.6632 38.2203 30.2366 38.221 29.3832V26.8222H37.477V26.2322H38.221V25.1742C38.443 25.1042 38.674 25.0282 38.921 24.9492V26.2322H40.013V26.8222H38.921V29.2692C38.9007 29.4861 38.9524 29.7036 39.068 29.8882C39.1314 29.9557 39.2094 30.0076 39.2962 30.0398C39.3829 30.0721 39.476 30.0839 39.568 30.0742C39.729 30.0779 39.8867 30.0287 40.017 29.9342V30.5222H40.008Z" fill="black"/>
<path d="M2.477 47.4983C2.47918 47.663 2.44776 47.8264 2.38466 47.9786C2.32156 48.1308 2.22811 48.2684 2.11 48.3833C1.99558 48.5034 1.8575 48.5984 1.70449 48.6624C1.55147 48.7265 1.38685 48.7581 1.221 48.7553C1.05862 48.7576 0.89758 48.7256 0.748368 48.6615C0.599156 48.5975 0.465123 48.5026 0.355002 48.3833C0.126948 48.1449 -0.000335693 47.8277 -0.000335693 47.4978C-0.000335693 47.1679 0.126948 46.8507 0.355002 46.6123C0.465772 46.4942 0.600065 46.4006 0.749224 46.3375C0.898382 46.2745 1.05909 46.2434 1.221 46.2463C1.38677 46.2434 1.55135 46.2748 1.70436 46.3387C1.85737 46.4025 1.99549 46.4974 2.11 46.6173C2.22766 46.7322 2.32077 46.8698 2.38368 47.0217C2.44659 47.1737 2.478 47.3368 2.476 47.5013" fill="black"/>
<path d="M18.022 48.4923H15.758L7.538 35.8033C7.33964 35.4868 7.17221 35.1519 7.038 34.8033H6.97C7.0487 35.5301 7.0791 36.2614 7.061 36.9923V48.4923H5.194V32.5713H7.617L15.59 45.0653C15.907 45.5653 16.124 45.9163 16.234 46.1303H16.278C16.1861 45.3532 16.1487 44.5706 16.166 43.7883V32.5713H18.021V48.4923H18.022Z" fill="black"/>
<path d="M29.988 48.4923H21.548V32.5713H29.622V34.2593H23.413V39.5593H29.17V41.2453H23.417V46.8093H29.992V48.4923H29.988Z" fill="black"/>
<path d="M42.79 34.2603H38.203V48.4953H36.337V34.2603H31.737V32.5713H42.786V34.2603H42.79Z" fill="black"/>
<path d="M17.389 5.06506C19.189 10.5721 19.872 20.3951 25.138 20.3951C25.5448 20.3942 25.9506 20.355 26.35 20.2781C21.563 19.1621 20.996 9.44506 18.075 4.41406C17.846 4.62206 17.619 4.83906 17.389 5.06506Z" fill="url(#paint0_linear_35_373)"/>
<path d="M18.075 4.41414C20.996 9.44614 21.563 19.1621 26.35 20.2781C26.7343 20.2057 27.1124 20.1037 27.481 19.9731C23.181 17.8681 21.997 8.43314 18.681 3.89014C18.481 4.05747 18.281 4.23214 18.081 4.41414" fill="url(#paint1_linear_35_373)"/>
<path d="M22.28 1.42099C21.8729 1.42192 21.4668 1.4611 21.067 1.538C19.9111 1.77937 18.8118 2.23891 17.828 2.89199C18.1374 3.20169 18.421 3.53613 18.676 3.892C19.6601 3.03926 20.7803 2.35779 21.99 1.87599C22.3909 1.72604 22.8042 1.61127 23.225 1.53299C22.917 1.45545 22.6006 1.41682 22.283 1.41799" fill="#14559A"/>
<path d="M30.835 18.0322C31.2743 17.6829 31.7147 17.2969 32.156 16.8742C30.326 11.3932 29.671 1.4292 24.369 1.4292C23.9852 1.42949 23.6023 1.46497 23.225 1.5352C28.055 2.7352 28.674 13.2452 30.835 18.0352" fill="url(#paint2_linear_35_373)"/>
<path d="M23.225 1.53592C22.917 1.45846 22.6006 1.41983 22.283 1.42092L24.368 1.42892C23.9842 1.42913 23.6012 1.46495 23.224 1.53592" fill="#3092C4"/>
<path d="M30.742 19.1973C30.5301 18.9933 30.3298 18.7777 30.142 18.5513C29.3238 19.1458 28.4273 19.6244 27.478 19.9733C27.7932 20.128 28.1269 20.2416 28.471 20.3113C28.7494 20.3677 29.0329 20.3959 29.317 20.3953C30.1532 20.4356 30.9877 20.2862 31.758 19.9583C31.385 19.7526 31.0421 19.4966 30.739 19.1973" fill="#1969BC"/>
<path d="M21.99 1.88023C26.316 4.14323 26.69 14.3892 30.144 18.5502C30.375 18.3872 30.605 18.2142 30.833 18.0322C28.672 13.2452 28.054 2.73223 23.225 1.53223C22.8039 1.6116 22.3904 1.72702 21.989 1.87723" fill="url(#paint3_linear_35_373)"/>
<path d="M18.679 3.88986C21.996 8.43186 23.179 17.8679 27.479 19.9729C28.4283 19.624 29.3248 19.1454 30.143 18.5509C26.691 14.3899 26.315 4.14386 21.989 1.88086C20.7806 2.36071 19.6613 3.04017 18.678 3.89086" fill="url(#paint4_linear_35_373)"/>
<path d="M15.266 4.93224C14.6217 6.48182 14.0566 8.0632 13.573 9.67024C14.7132 8.02976 15.9908 6.48921 17.392 5.06524C17.2324 4.56461 17.0445 4.07348 16.829 3.59424C16.2856 4.01181 15.7652 4.45847 15.27 4.93224" fill="url(#paint5_linear_35_373)"/>
<path d="M17.291 3.25491C17.138 3.36391 16.985 3.47591 16.831 3.59391C17.046 4.07286 17.2337 4.56366 17.393 5.06391C17.623 4.83891 17.851 4.62091 18.079 4.41291C17.8465 4.00691 17.583 3.61943 17.291 3.25391" fill="#2B74B1"/>
<path d="M17.831 2.89214C17.649 3.00714 17.469 3.12814 17.286 3.25514C17.5783 3.62106 17.8421 4.00886 18.075 4.41514C18.275 4.23314 18.475 4.05714 18.675 3.89014C18.4197 3.53424 18.1358 3.19979 17.826 2.89014" fill="#125A9E"/>
<path d="M47.34 1.00005C44.893 10.436 39.783 18.015 35.498 19.926H35.49C35.412 19.961 35.335 19.994 35.259 20.026C35.2499 20.0304 35.2406 20.034 35.231 20.037L35.165 20.062C35.1554 20.067 35.1454 20.071 35.135 20.074C35.099 20.087 35.063 20.098 35.028 20.112C35.013 20.118 34.998 20.122 34.984 20.127C34.9666 20.1336 34.949 20.1393 34.931 20.144L34.88 20.162C34.865 20.168 34.849 20.171 34.834 20.177C34.803 20.186 34.774 20.194 34.742 20.205C34.729 20.2069 34.7162 20.2103 34.704 20.215C34.685 20.221 34.663 20.226 34.642 20.232C34.6285 20.2377 34.6144 20.2417 34.6 20.244L34.532 20.261L34.45 20.279C34.6462 20.3515 34.8539 20.3881 35.063 20.387C39.126 20.387 43.222 13.106 50 0.998047H47.339L47.34 1.00005Z" fill="url(#paint6_linear_35_373)"/>
<path d="M12.691 1.80495C12.691 1.80495 12.697 1.79895 12.698 1.79895C12.6991 1.79924 12.7002 1.79932 12.7012 1.79918C12.7023 1.79904 12.7034 1.79867 12.7043 1.79811C12.7052 1.79755 12.706 1.7968 12.7067 1.79591C12.7073 1.79502 12.7078 1.79401 12.708 1.79295H12.713L12.779 1.76795C12.7815 1.76847 12.7842 1.76818 12.7865 1.7671C12.7888 1.76602 12.7908 1.76421 12.792 1.76195C12.798 1.76195 12.803 1.75595 12.809 1.75495L12.88 1.72995C12.934 1.71395 12.98 1.69395 13.036 1.67495C13.043 1.67495 13.051 1.66895 13.059 1.66895C13.067 1.66895 13.103 1.65395 13.126 1.64895C13.1359 1.64434 13.1463 1.64098 13.157 1.63895C13.18 1.63195 13.203 1.62395 13.225 1.61895C13.247 1.61395 13.244 1.61295 13.251 1.61195C13.326 1.59095 13.4 1.57195 13.474 1.55395C13.484 1.55395 13.493 1.54795 13.505 1.54695C13.5263 1.54094 13.548 1.53659 13.57 1.53395C13.5801 1.52904 13.5909 1.52567 13.602 1.52395C13.624 1.51795 13.645 1.51695 13.668 1.51195H13.683L13.819 1.48695H13.846C13.8668 1.48211 13.8878 1.47843 13.909 1.47595C13.921 1.47595 13.933 1.46995 13.944 1.46995C13.9642 1.46826 13.9842 1.46525 14.004 1.46095C14.0153 1.46191 14.0267 1.45984 14.037 1.45495C14.084 1.44895 14.137 1.44595 14.183 1.44195C14.042 1.42795 13.898 1.41895 13.751 1.41895C9.178 1.41795 2.874 9.90695 0.0350037 20.9009H0.582004C1.491 19.2799 2.307 17.7469 3.054 16.3079C5.043 8.52095 9.093 3.20795 12.692 1.80795" fill="url(#paint7_linear_35_373)"/>
<path d="M15.268 4.93295C15.7632 4.45916 16.2836 4.01251 16.827 3.59495C16.7166 3.34901 16.5927 3.10932 16.456 2.87695C15.9688 3.5054 15.5692 4.19705 15.268 4.93295Z" fill="#0D82CA"/>
<path d="M15.643 1.86789C15.9679 2.15632 16.2424 2.49701 16.455 2.87589C16.532 2.78089 16.61 2.69389 16.691 2.61189C16.3625 2.30076 15.9898 2.03993 15.585 1.83789C15.6009 1.84644 15.6173 1.85411 15.634 1.86089C15.634 1.86089 15.64 1.86689 15.643 1.86689" fill="#0D82CA"/>
<path d="M3.053 16.312C7.225 8.27301 9.202 3.18501 12.691 1.81201C9.091 3.22001 5.042 8.53001 3.053 16.312Z" fill="url(#paint8_linear_35_373)"/>
<path d="M16.69 2.61328C16.609 2.69628 16.532 2.78328 16.454 2.87728C16.5909 3.10971 16.7151 3.3494 16.826 3.59528C16.98 3.47728 17.134 3.36528 17.286 3.25628C17.1013 3.02815 16.9008 2.81328 16.686 2.61328" fill="#127BCA"/>
<path d="M4.94701 20.866C4.92193 20.8709 4.89653 20.8739 4.87101 20.875H4.85701C4.83501 20.875 4.81301 20.881 4.79301 20.881H4.78301C4.73101 20.887 4.68301 20.887 4.63001 20.891H4.61401C8.83701 20.773 10.767 18.659 11.725 15.591C12.453 13.266 13.051 11.308 13.575 9.66504C11.6205 12.4805 9.84012 15.413 8.24401 18.446C7.93295 19.0863 7.47032 19.6409 6.89628 20.0617C6.32224 20.4826 5.65415 20.757 4.95001 20.861" fill="url(#paint9_linear_35_373)"/>
<path d="M4.94801 20.8642C5.65238 20.7604 6.32075 20.4862 6.895 20.0653C7.46925 19.6444 7.932 19.0896 8.24301 18.4492C9.83796 15.4167 11.6163 12.4843 13.568 9.66818C14.0537 8.06095 14.6211 6.47956 15.268 4.93018C11.746 8.28218 8.21101 13.8572 4.94901 20.8622" fill="url(#paint10_linear_35_373)"/>
<path d="M3.053 16.3091C2.307 17.7481 1.49 19.2811 0.581001 20.9021H2.173C2.37402 19.3552 2.66788 17.8217 3.053 16.3101" fill="#05A1E6"/>
<path d="M14.04 1.45724C14.027 1.45724 14.017 1.46324 14.006 1.46324C13.9867 1.46802 13.9669 1.4707 13.947 1.47124C13.935 1.4702 13.923 1.47227 13.912 1.47724C13.8912 1.48201 13.8702 1.48568 13.849 1.48824C13.8396 1.48705 13.83 1.48918 13.822 1.49424L13.686 1.51824H13.671C13.6493 1.52396 13.6273 1.5283 13.605 1.53124C13.5945 1.5359 13.5834 1.53893 13.572 1.54024C13.5509 1.54571 13.5296 1.55005 13.508 1.55324C13.4985 1.55827 13.4878 1.56069 13.477 1.56024C13.402 1.57824 13.328 1.59724 13.254 1.61824C13.246 1.61824 13.238 1.62424 13.228 1.62624L13.161 1.64624C13.1513 1.65103 13.1408 1.65407 13.13 1.65524L13.063 1.67524C13.054 1.67524 13.047 1.68124 13.039 1.68124C12.988 1.70024 12.939 1.72024 12.884 1.73624L12.813 1.76024C12.8035 1.76532 12.7934 1.76934 12.783 1.77224C12.76 1.77924 12.738 1.78824 12.717 1.79624C12.7101 1.80037 12.7027 1.80372 12.695 1.80624C9.206 3.18324 7.229 8.27124 3.057 16.3062C2.67146 17.8178 2.37759 19.3513 2.177 20.8982H2.4C3.029 20.8982 3.207 20.8922 3.931 20.8922H4.631C4.681 20.8862 4.731 20.8862 4.784 20.8822H4.794C4.816 20.8822 4.837 20.8762 4.858 20.8762H4.873C4.896 20.8762 4.923 20.8702 4.949 20.8672C8.211 13.8622 11.749 8.28824 15.268 4.93524C15.5693 4.1999 15.9686 3.50864 16.455 2.88024C16.2429 2.50098 15.9688 2.15993 15.644 1.87124C15.644 1.87124 15.636 1.87124 15.635 1.86524C15.618 1.85824 15.602 1.85024 15.585 1.84124L15.536 1.81624C15.5196 1.80938 15.5036 1.80171 15.488 1.79324C15.4688 1.78653 15.4501 1.77851 15.432 1.76924L15.395 1.75124C15.364 1.73924 15.332 1.72624 15.303 1.71224C15.289 1.70624 15.277 1.70224 15.264 1.69724L15.195 1.66924C15.183 1.66423 15.1706 1.66022 15.158 1.65724L15.058 1.62424H15.05C15.013 1.61224 14.977 1.60324 14.939 1.59224C14.9316 1.58726 14.9229 1.58448 14.914 1.58424L14.821 1.55824C14.813 1.55824 14.806 1.55224 14.799 1.55224C14.723 1.53224 14.646 1.51624 14.567 1.50124C14.559 1.50124 14.551 1.49524 14.543 1.49524C14.509 1.48924 14.476 1.48324 14.443 1.47924C14.4403 1.47691 14.4371 1.47518 14.4336 1.47415C14.4302 1.47311 14.4266 1.47281 14.423 1.47324C14.383 1.46724 14.343 1.46224 14.304 1.45824H14.283C14.251 1.45224 14.221 1.45124 14.191 1.44824C14.14 1.45424 14.091 1.45724 14.045 1.46224" fill="url(#paint11_linear_35_373)"/>
<path d="M37.782 6.22592C36.982 8.79692 36.329 10.9189 35.764 12.6639C38.2535 9.12331 40.4087 5.35914 42.202 1.41992C41.1126 1.77047 40.1327 2.39753 39.358 3.23987C38.5834 4.08221 38.0403 5.11105 37.782 6.22592Z" fill="url(#paint12_linear_35_373)"/>
<path d="M35.83 19.767C35.718 19.824 35.605 19.879 35.494 19.928C39.778 18.017 44.889 10.438 47.336 1.00195H46.836C41.215 11.044 39.407 17.766 35.826 19.767" fill="url(#paint13_linear_35_373)"/>
<path d="M33.036 18.9241C33.968 17.7861 34.728 15.8521 35.764 12.6641C34.6905 14.1695 33.4858 15.577 32.164 16.8701C32.164 16.8761 32.164 16.8761 32.158 16.8801C32.3813 17.5891 32.6762 18.2737 33.038 18.9231" fill="#079AE1"/>
<path d="M33.036 18.9238C32.7506 19.2831 32.4027 19.588 32.009 19.8238C31.927 19.8718 31.844 19.9158 31.76 19.9568C32.1654 20.1763 32.609 20.3162 33.067 20.3688C33.138 20.3758 33.208 20.3828 33.281 20.3878H33.294C33.3274 20.3869 33.3609 20.3889 33.394 20.3938H33.743C33.7563 20.3949 33.7697 20.3929 33.782 20.3878C33.8078 20.389 33.8337 20.387 33.859 20.3818H33.897C33.923 20.3818 33.952 20.3758 33.98 20.3728H33.986C33.994 20.3728 34.003 20.3668 34.012 20.3668C34.042 20.3608 34.073 20.3578 34.101 20.3528H34.128L34.228 20.3358H34.244C34.312 20.3228 34.377 20.3098 34.444 20.2938C33.8294 20.0179 33.3296 19.5372 33.03 18.9338" fill="#1969BC"/>
<path d="M25.137 20.395C25.5441 20.3945 25.9503 20.3554 26.35 20.278C26.7342 20.2076 27.1124 20.1073 27.481 19.978C27.7959 20.1326 28.1293 20.2462 28.473 20.316C28.7518 20.3725 29.0356 20.4007 29.32 20.4L25.137 20.395Z" fill="#1E5CB3"/>
<path d="M29.32 20.395C30.1562 20.4355 30.9907 20.286 31.761 19.958C32.1664 20.1775 32.61 20.3173 33.068 20.37C33.139 20.377 33.209 20.384 33.282 20.389H33.295C33.3284 20.3881 33.3619 20.3901 33.395 20.395H29.318H29.32Z" fill="#1E5CB3"/>
<path d="M33.522 20.395H33.751C33.7643 20.3962 33.7777 20.3941 33.79 20.389C33.8161 20.3901 33.8423 20.3881 33.868 20.383H33.906C33.932 20.383 33.961 20.377 33.989 20.374H33.996C34.004 20.374 34.013 20.368 34.021 20.368C34.05 20.362 34.081 20.359 34.11 20.354C34.1197 20.3551 34.1296 20.353 34.138 20.348C34.171 20.342 34.205 20.338 34.238 20.332H34.254C34.322 20.319 34.387 20.306 34.454 20.29C34.6502 20.3625 34.8579 20.399 35.067 20.398L33.522 20.404V20.395Z" fill="#1D60B5"/>
<path d="M32.156 16.883V16.873C31.7147 17.295 31.2743 17.681 30.835 18.031C30.605 18.213 30.376 18.386 30.145 18.549C30.3327 18.7755 30.533 18.9912 30.745 19.195C31.0481 19.4943 31.391 19.7504 31.764 19.956C31.848 19.915 31.931 19.87 32.012 19.823C32.4061 19.5874 32.7543 19.2825 33.04 18.923C32.6783 18.2736 32.3834 17.5891 32.16 16.88" fill="#175FAB"/>
<path d="M45.274 1.00198H42.774C42.639 1.00798 42.508 1.01298 42.374 1.02098C42.313 1.15198 42.25 1.28298 42.19 1.41498C40.3968 5.35424 38.2415 9.11841 35.752 12.659C34.716 15.847 33.952 17.781 33.024 18.919C33.3239 19.5218 33.8232 20.0023 34.437 20.279C34.451 20.2744 34.4654 20.2711 34.48 20.269H34.489C34.499 20.269 34.509 20.263 34.519 20.263C34.541 20.257 34.566 20.253 34.588 20.246C34.6014 20.2411 34.6151 20.2371 34.629 20.234L34.691 20.218C34.7034 20.2125 34.7166 20.2088 34.73 20.207L34.822 20.179C34.8368 20.1726 34.8522 20.1676 34.868 20.164C34.886 20.158 34.903 20.153 34.919 20.145C34.937 20.139 34.956 20.135 34.972 20.128C34.986 20.122 35.002 20.118 35.015 20.112C35.051 20.099 35.087 20.088 35.123 20.074C35.133 20.074 35.142 20.065 35.153 20.063C35.175 20.054 35.197 20.047 35.219 20.037C35.2277 20.032 35.2371 20.0286 35.247 20.027C35.323 19.995 35.4 19.963 35.478 19.927H35.486C35.597 19.878 35.709 19.827 35.821 19.766C39.402 17.766 41.21 11.043 46.832 1.00098H45.264L45.274 1.00198Z" fill="url(#paint14_linear_35_373)"/>
<path d="M14.187 1.44306C14.1961 1.44194 14.2053 1.44407 14.213 1.44906C14.2349 1.44794 14.2568 1.4503 14.278 1.45606H14.3C14.339 1.46206 14.379 1.46606 14.419 1.47106C14.4226 1.47049 14.4262 1.47073 14.4297 1.47177C14.4332 1.47281 14.4363 1.47462 14.439 1.47706L14.539 1.49406C14.546 1.49406 14.556 1.50006 14.564 1.50006C14.641 1.51506 14.72 1.53206 14.795 1.55106C14.802 1.55106 14.809 1.55706 14.816 1.55706C14.848 1.56506 14.877 1.57406 14.909 1.58306C14.919 1.58306 14.926 1.58906 14.935 1.59106C14.973 1.60106 15.008 1.61006 15.045 1.62306C15.045 1.62306 15.045 1.62306 15.053 1.62906C15.084 1.63906 15.116 1.65106 15.153 1.66206C15.1649 1.66736 15.1773 1.67139 15.19 1.67406L15.259 1.70206C15.2726 1.70478 15.2858 1.7095 15.298 1.71606C15.328 1.73006 15.359 1.74206 15.39 1.75506L15.435 1.77406C15.4527 1.78343 15.4711 1.79145 15.49 1.79806L15.539 1.82106L15.588 1.84606C15.9926 2.0484 16.3653 2.3092 16.694 2.62006C16.8157 2.4919 16.9467 2.37291 17.086 2.26406C16.3435 1.723 15.4477 1.43294 14.529 1.43606C14.417 1.43606 14.304 1.44206 14.19 1.45106" fill="#7DCBEC"/>
<path d="M16.69 2.61284C16.9048 2.81284 17.1053 3.0277 17.29 3.25584C17.472 3.12884 17.653 3.00684 17.835 2.89284C17.6036 2.65979 17.3527 2.44701 17.085 2.25684C16.9459 2.3655 16.8152 2.4845 16.694 2.61284" fill="#5EC5ED"/>
<path d="M14.186 1.44413C14.3 1.43413 14.413 1.43013 14.525 1.43013C15.4436 1.42707 16.3392 1.71675 17.082 2.25713C17.9681 1.6277 19.0476 1.33032 20.131 1.41713H13.756C13.903 1.41713 14.047 1.42613 14.188 1.43913" fill="url(#paint15_linear_35_373)"/>
<path d="M20.131 1.42204C19.0482 1.33378 17.9688 1.62938 17.082 2.25704C17.3492 2.44745 17.5998 2.66021 17.831 2.89304C18.8151 2.2397 19.9148 1.77984 21.071 1.53804C21.4705 1.46196 21.8763 1.42313 22.283 1.42204H20.131Z" fill="url(#paint16_linear_35_373)"/>
<path d="M35.764 12.6659C36.33 10.9189 36.979 8.79888 37.783 6.22588C38.0409 5.11111 38.5835 4.08229 39.3579 3.23993C40.1322 2.39756 41.1118 1.77046 42.201 1.41988C42.265 1.29088 42.325 1.15688 42.387 1.02588C38.459 1.26088 36.622 3.25988 35.698 6.21888C34.082 11.3859 33.103 14.7349 32.161 16.8689C33.4822 15.5775 34.6869 14.1721 35.761 12.6689" fill="url(#paint17_linear_35_373)"/>
<path d="M41.528 19.019H41.083V20.403H40.901V19.019H40.454V18.854H41.528V19.019Z" fill="black"/>
<path d="M43.351 20.402H43.17V19.362C43.17 19.28 43.176 19.18 43.185 19.062C43.1728 19.1135 43.1567 19.1639 43.137 19.213L42.61 20.402H42.522L41.993 19.222C41.9719 19.1703 41.9558 19.1168 41.945 19.062H41.939C41.945 19.124 41.947 19.225 41.947 19.362V20.399H41.77V18.854H42.01L42.485 19.935C42.5127 19.9953 42.5361 20.0574 42.555 20.121H42.562C42.594 20.036 42.619 19.972 42.637 19.931L43.122 18.855H43.35V20.403L43.351 20.402Z" fill="black"/>
<defs>
<linearGradient id="paint0_linear_35_373" x1="21.8695" y1="1.29777" x2="21.8695" y2="25.1254" gradientUnits="userSpaceOnUse">
<stop stop-color="#0994DC"/>
<stop offset="0.35" stop-color="#66CEF5"/>
<stop offset="0.846" stop-color="#127BCA"/>
<stop offset="1" stop-color="#127BCA"/>
</linearGradient>
<linearGradient id="paint1_linear_35_373" x1="22.778" y1="0.694477" x2="22.778" y2="25.129" gradientUnits="userSpaceOnUse">
<stop stop-color="#0E76BC"/>
<stop offset="0.36" stop-color="#36AEE8"/>
<stop offset="0.846" stop-color="#00ADEF"/>
<stop offset="1" stop-color="#00ADEF"/>
</linearGradient>
<linearGradient id="paint2_linear_35_373" x1="27.6905" y1="19.8453" x2="27.6905" y2="0.399627" gradientUnits="userSpaceOnUse">
<stop stop-color="#1C63B7"/>
<stop offset="0.5" stop-color="#33BDF2"/>
<stop offset="1" stop-color="#33BDF2" stop-opacity="0.42"/>
</linearGradient>
<linearGradient id="paint3_linear_35_373" x1="26.411" y1="-1.78628" x2="26.411" y2="23.5876" gradientUnits="userSpaceOnUse">
<stop stop-color="#166AB8"/>
<stop offset="0.4" stop-color="#36AEE8"/>
<stop offset="0.846" stop-color="#0798DD"/>
<stop offset="1" stop-color="#0798DD"/>
</linearGradient>
<linearGradient id="paint4_linear_35_373" x1="24.4105" y1="-1.64708" x2="24.4105" y2="25.3281" gradientUnits="userSpaceOnUse">
<stop stop-color="#124379"/>
<stop offset="0.39" stop-color="#1487CB"/>
<stop offset="0.78" stop-color="#165197"/>
<stop offset="1" stop-color="#165197"/>
</linearGradient>
<linearGradient id="paint5_linear_35_373" x1="13.573" y1="6.63224" x2="17.392" y2="6.63224" gradientUnits="userSpaceOnUse">
<stop stop-color="#33BDF2" stop-opacity="0.698"/>
<stop offset="1" stop-color="#1DACD8"/>
</linearGradient>
<linearGradient id="paint6_linear_35_373" x1="42.225" y1="19.3595" x2="42.225" y2="0.416377" gradientUnits="userSpaceOnUse">
<stop stop-color="#136AB4"/>
<stop offset="0.6" stop-color="#59CAF5" stop-opacity="0.549"/>
<stop offset="1" stop-color="#59CAF5" stop-opacity="0.235"/>
</linearGradient>
<linearGradient id="paint7_linear_35_373" x1="0.0350037" y1="11.1599" x2="14.183" y2="11.1599" gradientUnits="userSpaceOnUse">
<stop stop-color="#05A1E6" stop-opacity="0.247"/>
<stop offset="1" stop-color="#05A1E6"/>
</linearGradient>
<linearGradient id="paint8_linear_35_373" x1="7.872" y1="19.8355" x2="7.872" y2="0.449012" gradientUnits="userSpaceOnUse">
<stop stop-color="#318ED5"/>
<stop offset="1" stop-color="#38A7E4"/>
</linearGradient>
<linearGradient id="paint9_linear_35_373" x1="9.09451" y1="19.9031" x2="9.09451" y2="1.04347" gradientUnits="userSpaceOnUse">
<stop stop-color="#05A1E6"/>
<stop offset="1" stop-color="#05A1E6" stop-opacity="0.549"/>
</linearGradient>
<linearGradient id="paint10_linear_35_373" x1="10.108" y1="20.8642" x2="10.108" y2="4.93018" gradientUnits="userSpaceOnUse">
<stop stop-color="#1959A6"/>
<stop offset="0.5" stop-color="#05A1E6"/>
<stop offset="0.918" stop-color="#7EC5EA"/>
<stop offset="1" stop-color="#7EC5EA"/>
</linearGradient>
<linearGradient id="paint11_linear_35_373" x1="10.7152" y1="19.8479" x2="5.32275" y2="3.34463" gradientUnits="userSpaceOnUse">
<stop stop-color="#165096"/>
<stop offset="1" stop-color="#0D82CA"/>
</linearGradient>
<linearGradient id="paint12_linear_35_373" x1="38.983" y1="10.0778" x2="38.983" y2="1.04887" gradientUnits="userSpaceOnUse">
<stop stop-color="#05A1E6"/>
<stop offset="0.874" stop-color="#0495D6"/>
<stop offset="1" stop-color="#0495D6"/>
</linearGradient>
<linearGradient id="paint13_linear_35_373" x1="43.2268" y1="0.207061" x2="34.8123" y2="18.8892" gradientUnits="userSpaceOnUse">
<stop stop-color="#38A7E4" stop-opacity="0.329"/>
<stop offset="0.962" stop-color="#0E88D3"/>
<stop offset="1" stop-color="#0E88D3"/>
</linearGradient>
<linearGradient id="paint14_linear_35_373" x1="39.928" y1="0.943143" x2="39.928" y2="20.6453" gradientUnits="userSpaceOnUse">
<stop stop-color="#168CD4"/>
<stop offset="0.5" stop-color="#1C87CC"/>
<stop offset="1" stop-color="#154B8D"/>
</linearGradient>
<linearGradient id="paint15_linear_35_373" x1="14.8206" y1="0.499689" x2="14.9101" y2="2.61431" gradientUnits="userSpaceOnUse">
<stop stop-color="#97D6EE"/>
<stop offset="0.703" stop-color="#55C1EA"/>
<stop offset="1" stop-color="#55C1EA"/>
</linearGradient>
<linearGradient id="paint16_linear_35_373" x1="17.4409" y1="2.7994" x2="17.8348" y2="0.5887" gradientUnits="userSpaceOnUse">
<stop stop-color="#7ACCEC"/>
<stop offset="1" stop-color="#3FB7ED"/>
</linearGradient>
<linearGradient id="paint17_linear_35_373" x1="37.274" y1="2.03983" x2="37.274" y2="21.3049" gradientUnits="userSpaceOnUse">
<stop stop-color="#1DA7E7"/>
<stop offset="1" stop-color="#37ABE7" stop-opacity="0"/>
</linearGradient>
</defs>
</svg>
