<svg width="100" height="65" viewBox="0 0 100 65" fill="none" xmlns="http://www.w3.org/2000/svg">
<path d="M50.9165 64.6585C50.5839 64.6582 50.2572 64.5707 49.969 64.4045L46.9547 62.6185C46.5049 62.3665 46.7248 62.2765 46.8727 62.2185C47.351 62.0682 47.8089 61.8592 48.2359 61.5965C48.2715 61.5798 48.3108 61.5725 48.35 61.5753C48.3892 61.5781 48.427 61.5909 48.4599 61.6125L50.7766 62.9885C50.8199 63.0108 50.8678 63.0224 50.9165 63.0224C50.9652 63.0224 51.0132 63.0108 51.0564 62.9885L60.0875 57.7725C60.1297 57.7473 60.1645 57.7115 60.1887 57.6687C60.2129 57.626 60.2255 57.5777 60.2255 57.5285V47.1025C60.2254 47.0526 60.2126 47.0036 60.188 46.9601C60.1635 46.9167 60.1282 46.8803 60.0856 46.8545L51.0584 41.6425C51.0162 41.6181 50.9683 41.6053 50.9195 41.6053C50.8708 41.6053 50.8228 41.6181 50.7806 41.6425L41.7555 46.8545C41.7122 46.8795 41.6762 46.9153 41.6509 46.9585C41.6257 47.0016 41.6121 47.0506 41.6115 47.1005V57.5265C41.6114 57.5756 41.6243 57.6239 41.6489 57.6664C41.6735 57.7089 41.7089 57.7441 41.7515 57.7685L44.2241 59.1985C45.5674 59.8705 46.387 59.0785 46.387 58.2825V47.9925C46.3867 47.9581 46.3933 47.924 46.4064 47.8922C46.4195 47.8604 46.4388 47.8316 46.4632 47.8074C46.4876 47.7831 46.5166 47.764 46.5484 47.7512C46.5803 47.7383 46.6145 47.732 46.6488 47.7325H47.7922C47.8264 47.7322 47.8603 47.7388 47.892 47.7518C47.9236 47.7647 47.9523 47.7839 47.9765 47.8081C48.0007 47.8323 48.0198 47.861 48.0328 47.8927C48.0458 47.9244 48.0523 47.9583 48.0521 47.9925V58.2885C48.0998 58.6578 48.0646 59.033 47.9492 59.387C47.8338 59.7409 47.641 60.0647 47.3849 60.3348C47.1288 60.6048 46.8157 60.8144 46.4685 60.9483C46.1212 61.0821 45.7485 61.1369 45.3775 61.1085C44.6436 61.1212 43.9213 60.9249 43.2946 60.5425L40.9259 59.1765C40.6379 59.0085 40.3989 58.768 40.2327 58.4789C40.0664 58.1897 39.9788 57.8621 39.9784 57.5285V47.1065C39.9779 46.7731 40.0652 46.4454 40.2316 46.1564C40.3979 45.8674 40.6374 45.6274 40.9259 45.4605L49.965 40.2425C50.2562 40.0834 50.5827 40 50.9145 40C51.2463 40 51.5728 40.0834 51.864 40.2425L60.8931 45.4625C61.1811 45.63 61.4201 45.8702 61.5864 46.159C61.7527 46.4478 61.8403 46.7752 61.8406 47.1085V57.5345C61.8397 57.8677 61.7518 58.1949 61.5856 58.4836C61.4194 58.7723 61.1807 59.0125 60.8931 59.1805L51.864 64.3985C51.5747 64.5655 51.2465 64.6531 50.9125 64.6525" fill="#689F63"/>
<path d="M54.7524 56.666C50.8006 56.666 49.973 54.852 49.973 53.33C49.973 53.2957 49.9798 53.2617 49.993 53.23C50.0062 53.1984 50.0255 53.1696 50.0498 53.1454C50.0742 53.1213 50.1031 53.1022 50.1348 53.0892C50.1666 53.0763 50.2006 53.0697 50.2349 53.07H51.4023C51.4646 53.0702 51.5249 53.0927 51.5721 53.1334C51.6194 53.1741 51.6506 53.2304 51.6601 53.292C51.836 54.482 52.3617 55.082 54.7504 55.082C56.6534 55.082 57.463 54.652 57.463 53.642C57.463 53.06 57.2331 52.628 54.2747 52.34C51.802 52.096 50.2769 51.55 50.2769 49.572C50.2769 47.75 51.814 46.664 54.3886 46.664C57.2791 46.664 58.7123 47.664 58.8942 49.826C58.897 49.8624 58.8922 49.8989 58.8802 49.9333C58.8681 49.9678 58.8491 49.9993 58.8243 50.026C58.7986 50.0531 58.7675 50.0745 58.7331 50.089C58.6987 50.1034 58.6617 50.1106 58.6243 50.11H57.451C57.3923 50.1102 57.3353 50.0906 57.2892 50.0543C57.2431 50.018 57.2106 49.9671 57.1971 49.91C56.9153 48.66 56.2316 48.258 54.3766 48.258C52.2998 48.258 52.0579 48.982 52.0579 49.524C52.0579 50.182 52.3417 50.374 55.1462 50.746C57.9507 51.118 59.24 51.634 59.24 53.586C59.24 55.538 57.5989 56.682 54.7365 56.682M65.7305 45.624H66.0343C66.0726 45.6288 66.1115 45.625 66.1481 45.6131C66.1848 45.6012 66.2184 45.5814 66.2466 45.5551C66.2748 45.5288 66.297 45.4966 66.3114 45.4608C66.3258 45.425 66.3322 45.3866 66.3302 45.348C66.3302 45.082 66.1463 45.082 66.0444 45.082H65.7325L65.7305 45.624ZM65.3627 44.77H66.0343C66.2642 44.77 66.718 44.77 66.718 45.286C66.7277 45.3975 66.6953 45.5086 66.6273 45.5975C66.5592 45.6863 66.4603 45.7465 66.3502 45.766C66.62 45.784 66.638 45.966 66.674 46.21C66.684 46.3859 66.7183 46.5596 66.776 46.726H66.3622C66.3502 46.636 66.2882 46.138 66.2882 46.11C66.2602 46 66.2223 45.944 66.0883 45.944H65.7465V46.726H65.3687L65.3627 44.77ZM64.5632 45.742C64.5624 46.0312 64.6474 46.3141 64.8075 46.5548C64.9677 46.7956 65.1956 46.9834 65.4625 47.0943C65.7295 47.2052 66.0233 47.2343 66.3068 47.178C66.5903 47.1216 66.8507 46.9823 67.0549 46.7776C67.2591 46.573 67.398 46.3123 67.454 46.0286C67.5099 45.7449 67.4804 45.451 67.3691 45.1841C67.2579 44.9171 67.0699 44.6893 66.8291 44.5294C66.5882 44.3695 66.3054 44.2848 66.0164 44.286C65.6312 44.2881 65.2625 44.4423 64.9904 44.7149C64.7183 44.9876 64.5647 45.3567 64.5632 45.742ZM67.7614 45.742C67.7614 46.0865 67.6593 46.4233 67.468 46.7098C67.2767 46.9963 67.0048 47.2196 66.6866 47.3514C66.3685 47.4833 66.0184 47.5177 65.6807 47.4505C65.343 47.3833 65.0327 47.2174 64.7892 46.9738C64.5457 46.7302 64.3799 46.4198 64.3127 46.0818C64.2456 45.7439 64.2801 45.3937 64.4118 45.0754C64.5436 44.7571 64.7668 44.485 65.0531 44.2936C65.3394 44.1022 65.676 44 66.0203 44C66.4818 44.0011 66.924 44.1849 67.2503 44.5114C67.5766 44.8378 67.7604 45.2803 67.7614 45.742Z" fill="#689F63"/>
<path fill-rule="evenodd" clip-rule="evenodd" d="M21.4604 20.4795C21.4602 20.2767 21.4067 20.0776 21.3053 19.9021C21.2039 19.7266 21.0582 19.5808 20.8827 19.4795L11.3079 13.9635C11.148 13.87 10.9673 13.8177 10.7822 13.8115H10.6822C10.4959 13.8179 10.314 13.8701 10.1525 13.9635L0.579687 19.4755C0.404515 19.5773 0.258917 19.7232 0.157261 19.8985C0.0556042 20.0739 0.00140126 20.2727 0 20.4755L0.0219881 35.3215C0.0211638 35.4229 0.0474055 35.5227 0.0980052 35.6106C0.148605 35.6985 0.22173 35.7713 0.309833 35.8215C0.396109 35.8745 0.495402 35.9026 0.596678 35.9026C0.697954 35.9026 0.797247 35.8745 0.883523 35.8215L6.57645 32.5595C6.75149 32.4574 6.89698 32.3116 6.99861 32.1362C7.10025 31.9609 7.15454 31.7621 7.15614 31.5595V24.6255C7.15613 24.4227 7.20952 24.2235 7.31094 24.0479C7.41236 23.8724 7.55821 23.7267 7.73382 23.6255L10.1565 22.2255C10.3325 22.123 10.5326 22.0692 10.7362 22.0695C10.9386 22.0689 11.1374 22.1228 11.3119 22.2255L13.7346 23.6255C13.9106 23.7264 14.0568 23.872 14.1586 24.0476C14.2604 24.2232 14.3141 24.4225 14.3143 24.6255V31.5595C14.3163 31.7621 14.3707 31.9607 14.4723 32.1359C14.5739 32.3112 14.7192 32.4571 14.894 32.5595L20.5829 35.8195C20.6705 35.8718 20.7707 35.8994 20.8727 35.8994C20.9748 35.8994 21.0749 35.8718 21.1626 35.8195C21.2496 35.7682 21.3218 35.6952 21.3719 35.6075C21.4221 35.5198 21.4484 35.4205 21.4484 35.3195L21.4604 20.4795ZM66.636 28.2095C66.6361 28.2601 66.6229 28.3099 66.5976 28.3538C66.5723 28.3977 66.5359 28.4341 66.4921 28.4595L63.2039 30.3555C63.16 30.3805 63.1104 30.3937 63.0599 30.3937C63.0095 30.3937 62.9599 30.3805 62.916 30.3555L59.6278 28.4595C59.5838 28.4343 59.5473 28.3979 59.522 28.354C59.4967 28.31 59.4836 28.2602 59.4839 28.2095V24.4095C59.4836 24.3587 59.4966 24.3088 59.5215 24.2646C59.5463 24.2205 59.5823 24.1835 59.6258 24.1575L62.912 22.2575C62.9564 22.2318 63.0067 22.2183 63.0579 22.2183C63.1092 22.2183 63.1595 22.2318 63.2039 22.2575L66.4921 24.1575C66.5362 24.183 66.5728 24.2197 66.5981 24.264C66.6234 24.3083 66.6365 24.3585 66.636 24.4095V28.2095ZM67.5295 0.0734617C67.4415 0.0242324 67.3421 -0.0010821 67.2413 3.54622e-05C67.1404 0.00115303 67.0417 0.0286637 66.9547 0.0798318C66.8678 0.131 66.7958 0.204043 66.7458 0.291696C66.6959 0.37935 66.6697 0.47856 66.67 0.579462V15.2815C66.6706 15.352 66.6526 15.4214 66.6178 15.4827C66.583 15.544 66.5326 15.595 66.4717 15.6306C66.4108 15.6661 66.3416 15.6849 66.2711 15.6851C66.2006 15.6852 66.1314 15.6667 66.0703 15.6315L63.6716 14.2495C63.496 14.148 63.2967 14.0946 63.0939 14.0946C62.8911 14.0946 62.6919 14.148 62.5162 14.2495L52.9314 19.7795C52.7554 19.8804 52.6092 20.026 52.5074 20.2016C52.4056 20.3772 52.3519 20.5765 52.3517 20.7795V31.8435C52.3523 32.0463 52.4062 32.2455 52.5079 32.421C52.6097 32.5965 52.7557 32.7422 52.9314 32.8435L62.5102 38.3775C62.6863 38.4787 62.8859 38.532 63.0889 38.532C63.292 38.532 63.4915 38.4787 63.6676 38.3775L73.2465 32.8415C73.422 32.74 73.5679 32.5943 73.6697 32.4189C73.7714 32.2434 73.8253 32.0443 73.8261 31.8415V4.26546C73.8254 4.0586 73.7695 3.85569 73.664 3.67775C73.5586 3.49981 73.4075 3.35332 73.2265 3.25346L67.5295 0.0734617ZM99.4243 24.3115C99.5993 24.2097 99.7445 24.0638 99.8455 23.8883C99.9465 23.7129 99.9998 23.514 100 23.3115V20.6295C99.9998 20.427 99.9465 20.2281 99.8455 20.0526C99.7445 19.8771 99.5993 19.7312 99.4243 19.6295L89.9074 14.1015C89.7313 13.9993 89.5314 13.9454 89.3278 13.9454C89.1242 13.9454 88.9242 13.9993 88.7481 14.1015L79.1732 19.6315C78.9974 19.7326 78.8513 19.8782 78.7495 20.0538C78.6477 20.2293 78.594 20.4285 78.5936 20.6315V31.6915C78.595 31.8947 78.6496 32.0939 78.752 32.2694C78.8544 32.4449 79.0011 32.5904 79.1772 32.6915L88.6921 38.1175C88.8653 38.2154 89.0609 38.2669 89.2598 38.2669C89.4587 38.2669 89.6543 38.2154 89.8275 38.1175L95.5824 34.9175C95.6699 34.8667 95.7426 34.7937 95.7931 34.706C95.8437 34.6182 95.8703 34.5187 95.8703 34.4175C95.8703 34.3162 95.8437 34.2167 95.7931 34.1289C95.7426 34.0412 95.6699 33.9683 95.5824 33.9175L85.9536 28.3995C85.865 28.3495 85.7913 28.2768 85.74 28.189C85.6888 28.1011 85.6617 28.0012 85.6617 27.8995V24.4235C85.6614 24.3214 85.6882 24.221 85.7395 24.1328C85.7908 24.0446 85.8647 23.9716 85.9536 23.9215L88.952 22.1915C89.0393 22.1405 89.1387 22.1137 89.2398 22.1137C89.341 22.1137 89.4403 22.1405 89.5276 22.1915L92.526 23.9215C92.6141 23.9719 92.6873 24.0446 92.7382 24.1325C92.7891 24.2203 92.8159 24.32 92.8159 24.4215V27.1495C92.8159 27.251 92.8426 27.3508 92.8934 27.4387C92.9442 27.5266 93.0173 27.5996 93.1052 27.6503C93.1932 27.701 93.2929 27.7276 93.3944 27.7275C93.4959 27.7273 93.5956 27.7004 93.6834 27.6495L99.4243 24.3115Z" fill="#333333"/>
<path fill-rule="evenodd" clip-rule="evenodd" d="M89.1859 23.794C89.2195 23.7743 89.2578 23.7639 89.2968 23.7639C89.3358 23.7639 89.3741 23.7743 89.4077 23.794L91.2447 24.854C91.2794 24.8742 91.308 24.9035 91.3274 24.9388C91.3468 24.974 91.3562 25.0138 91.3547 25.054V27.178C91.3562 27.2182 91.3468 27.258 91.3274 27.2932C91.308 27.3284 91.2794 27.3577 91.2447 27.378L89.4077 28.438C89.3741 28.4577 89.3358 28.468 89.2968 28.468C89.2578 28.468 89.2195 28.4577 89.1859 28.438L87.3488 27.378C87.3134 27.3582 87.284 27.3292 87.2639 27.2939C87.2438 27.2586 87.2338 27.2186 87.2349 27.178V25.054C87.2332 25.0138 87.2425 24.9739 87.2619 24.9386C87.2813 24.9033 87.31 24.8741 87.3449 24.854L89.1859 23.794Z" fill="#689F63"/>
<mask id="mask0_30_347" style="mask-type:alpha" maskUnits="userSpaceOnUse" x="22" y="12" width="29" height="30">
<path d="M42.4575 12.3799L22.4107 20.4888L30.8944 41.4602L50.938 33.3484L42.4575 12.3799Z" fill="url(#paint0_linear_30_347)"/>
</mask>
<g mask="url(#mask0_30_347)">
<path d="M22.4797 34.6282L44.6661 40.9438L50.8334 19.2531L28.6469 12.9375L22.4797 34.6282Z" fill="url(#paint1_linear_30_347)"/>
<path d="M25.2541 26.4719L38.3425 38.1962L48.3493 27.0276L35.2609 15.3033L25.2541 26.4719Z" fill="url(#paint2_linear_30_347)"/>
</g>
<defs>
<linearGradient id="paint0_linear_30_347" x1="-23.8023" y1="25.8548" x2="-23.6258" y2="25.6579" gradientUnits="userSpaceOnUse">
<stop offset="0.3" stop-color="#3E863D"/>
<stop offset="0.5" stop-color="#55934F"/>
<stop offset="0.8" stop-color="#5AAD45"/>
</linearGradient>
<linearGradient id="paint1_linear_30_347" x1="-22.5953" y1="14.8749" x2="-22.4692" y2="14.7777" gradientUnits="userSpaceOnUse">
<stop offset="0.57" stop-color="#3E863D"/>
<stop offset="0.72" stop-color="#619857"/>
<stop offset="1" stop-color="#76AC64"/>
</linearGradient>
<linearGradient id="paint2_linear_30_347" x1="-23.7654" y1="25.8059" x2="-23.6654" y2="25.6942" gradientUnits="userSpaceOnUse">
<stop offset="0.16" stop-color="#6BBF47"/>
<stop offset="0.38" stop-color="#79B461"/>
<stop offset="0.47" stop-color="#75AC64"/>
<stop offset="0.7" stop-color="#659E5A"/>
<stop offset="0.9" stop-color="#3E863D"/>
</linearGradient>
</defs>
</svg>
