<svg width="51" height="50" viewBox="0 0 51 50" fill="none" xmlns="http://www.w3.org/2000/svg">
<path d="M24.963 0C12.203 0 13 5.533 13 5.533L13.014 11.265H25.191V12.986H8.17801C8.17801 12.986 0.0140076 12.061 0.0140076 24.936C0.0140076 37.811 7.14001 37.354 7.14001 37.354H11.393V31.379C11.393 31.379 11.164 24.253 18.406 24.253H30.482C30.482 24.253 37.267 24.363 37.267 17.696V6.672C37.267 6.672 38.298 0 24.963 0ZM18.249 3.855C18.6824 3.8548 19.1061 3.98313 19.4665 4.22376C19.827 4.46439 20.108 4.80651 20.2739 5.20685C20.4399 5.60718 20.4835 6.04775 20.399 6.47283C20.3146 6.89791 20.106 7.2884 19.7996 7.59492C19.4933 7.90143 19.1029 8.11021 18.6778 8.19483C18.2528 8.27945 17.8122 8.23612 17.4118 8.07032C17.0114 7.90451 16.6691 7.62369 16.4283 7.26336C16.1875 6.90303 16.059 6.47938 16.059 6.046C16.0586 5.75825 16.115 5.47324 16.2249 5.2073C16.3348 4.94137 16.4961 4.69972 16.6995 4.4962C16.9029 4.29268 17.1445 4.13129 17.4104 4.02126C17.6763 3.91124 17.9613 3.85474 18.249 3.855Z" fill="url(#paint0_linear_34_362)"/>
<path d="M25.326 50.0001C38.085 50.0001 37.289 44.4671 37.289 44.4671L37.275 38.7351H25.098V37.0131H42.11C42.11 37.0131 50.275 37.939 50.275 25.064C50.275 12.189 43.149 12.6461 43.149 12.6461H38.896V18.6241C38.896 18.6241 39.125 25.7501 31.883 25.7501H19.806C19.806 25.7501 13.021 25.6401 13.021 32.3071V43.3241C13.021 43.3241 11.991 49.995 25.321 49.995L25.326 50.0001ZM32.04 46.1451C31.6067 46.1451 31.1831 46.0166 30.8227 45.7758C30.4624 45.5351 30.1816 45.1929 30.0158 44.7925C29.85 44.3922 29.8066 43.9516 29.8911 43.5266C29.9756 43.1016 30.1843 42.7112 30.4907 42.4048C30.7971 42.0984 31.1875 41.8897 31.6126 41.8052C32.0376 41.7206 32.4781 41.764 32.8785 41.9298C33.2788 42.0957 33.621 42.3765 33.8618 42.7368C34.1025 43.0971 34.231 43.5207 34.231 43.9541C34.2313 44.2418 34.1748 44.5269 34.0648 44.7928C33.9547 45.0588 33.7934 45.3004 33.5899 45.5039C33.3864 45.7074 33.1447 45.8688 32.8788 45.9788C32.6128 46.0888 32.3278 46.1453 32.04 46.1451Z" fill="url(#paint1_linear_34_362)"/>
<defs>
<linearGradient id="paint0_linear_34_362" x1="4.8593" y1="4.48272" x2="29.738" y2="29.156" gradientUnits="userSpaceOnUse">
<stop stop-color="#387EB8"/>
<stop offset="1" stop-color="#366994"/>
</linearGradient>
<linearGradient id="paint1_linear_34_362" x1="20.1216" y1="20.3394" x2="46.8652" y2="45.607" gradientUnits="userSpaceOnUse">
<stop stop-color="#FFE052"/>
<stop offset="1" stop-color="#FFC331"/>
</linearGradient>
</defs>
</svg>
