<svg width="50" height="45" viewBox="0 0 50 45" fill="none" xmlns="http://www.w3.org/2000/svg">
<path d="M50 22.269C50 18.957 45.852 15.818 39.492 13.869C40.96 7.387 40.307 2.23 37.433 0.579002C36.7367 0.188076 35.9483 -0.00909579 35.15 0.00800323V2.281C35.5536 2.26846 35.9537 2.3597 36.312 2.546C37.698 3.341 38.299 6.368 37.831 10.261C37.719 11.219 37.531 12.228 37.311 13.261C35.1807 12.7475 33.0186 12.3764 30.839 12.15C29.5408 10.3575 28.1243 8.65373 26.599 7.05C29.921 3.962 33.04 2.27 35.16 2.27V0C32.36 0 28.688 2 24.979 5.463C21.269 2.018 17.6 0.0410004 14.798 0.0410004V2.314C16.908 2.314 20.036 3.996 23.359 7.063C21.8413 8.66002 20.4349 10.3593 19.15 12.149C16.9661 12.3727 14.8002 12.7473 12.668 13.27C12.434 12.251 12.26 11.262 12.138 10.314C11.659 6.421 12.25 3.394 13.626 2.589C13.9857 2.3969 14.3906 2.30535 14.798 2.324V0.0510025C13.9943 0.0345475 13.2007 0.231581 12.498 0.622002C9.63399 2.273 8.99199 7.422 10.47 13.881C4.13099 15.838 0.00299072 18.967 0.00299072 22.269C0.00299072 25.571 4.15099 28.72 10.511 30.669C9.04299 37.151 9.69599 42.308 12.57 43.959C13.2695 44.3511 14.0613 44.5483 14.863 44.53C17.663 44.53 21.335 42.53 25.044 39.067C28.754 42.512 32.423 44.489 35.225 44.489C36.0287 44.5055 36.8223 44.3084 37.525 43.918C40.389 42.267 41.031 37.118 39.553 30.659C45.872 28.71 50 25.571 50 22.269ZM36.731 15.469C36.354 16.784 35.885 18.139 35.355 19.495C34.937 18.68 34.499 17.864 34.02 17.049C33.541 16.234 33.052 15.439 32.552 14.664C34 14.88 35.4 15.145 36.731 15.471V15.469ZM32.063 26.323C31.268 27.699 30.453 29.003 29.607 30.216C28.088 30.348 26.55 30.416 25 30.416C23.45 30.416 21.922 30.345 20.414 30.222C19.568 29.0093 18.746 27.7183 17.948 26.349C17.1733 25.0157 16.4667 23.6637 15.828 22.293C16.46 20.927 17.173 19.562 17.938 18.227C18.733 16.851 19.548 15.547 20.394 14.334C21.913 14.202 23.451 14.134 25.001 14.134C26.551 14.134 28.079 14.205 29.587 14.328C30.433 15.5407 31.255 16.8317 32.053 18.201C32.8277 19.5343 33.5343 20.8863 34.173 22.257C33.53 23.624 32.827 24.99 32.063 26.325V26.323ZM35.355 25C35.905 26.366 36.374 27.731 36.761 29.056C35.426 29.382 34.019 29.656 32.561 29.871C33.061 29.086 33.561 28.281 34.029 27.456C34.497 26.631 34.937 25.815 35.355 25ZM25.02 35.874C24.0204 34.8363 23.0748 33.7479 22.187 32.613C23.104 32.654 24.042 32.684 24.987 32.684C25.932 32.684 26.893 32.664 27.82 32.613C26.9461 33.7497 26.0114 34.8383 25.02 35.874ZM17.437 29.874C15.99 29.66 14.594 29.395 13.258 29.069C13.635 27.754 14.104 26.399 14.634 25.043C15.052 25.858 15.49 26.674 15.969 27.489C16.448 28.304 16.939 29.1 17.438 29.872L17.437 29.874ZM24.969 8.665C25.9686 9.70271 26.9142 10.7912 27.802 11.926C26.885 11.885 25.947 11.855 25.002 11.855C24.057 11.855 23.096 11.875 22.169 11.926C23.0431 10.7886 23.9782 9.69938 24.97 8.663L24.969 8.665ZM17.427 14.665C16.927 15.45 16.427 16.255 15.959 17.08C15.491 17.905 15.052 18.711 14.634 19.526C14.084 18.16 13.615 16.795 13.228 15.47C14.564 15.155 15.97 14.88 17.428 14.666L17.427 14.665ZM8.20399 27.425C4.59599 25.886 2.26199 23.868 2.26199 22.268C2.26199 20.668 4.59599 18.64 8.20399 17.111C9.08 16.734 10.038 16.398 11.027 16.082C11.6504 18.2004 12.4165 20.2741 13.32 22.289C12.4261 24.2938 11.67 26.3573 11.057 28.465C10.049 28.149 9.09098 27.8 8.19998 27.426L8.20399 27.425ZM13.687 41.989C12.301 41.194 11.7 38.167 12.168 34.274C12.28 33.316 12.468 32.307 12.688 31.274C14.8183 31.7875 16.9804 32.1586 19.16 32.385C20.4582 34.1775 21.8747 35.8813 23.4 37.485C20.078 40.573 16.959 42.265 14.839 42.265C14.4381 42.2694 14.0424 42.1745 13.687 41.989ZM37.861 34.223C38.34 38.116 37.749 41.143 36.373 41.948C36.0132 42.1401 35.6084 42.2316 35.201 42.213C33.091 42.213 29.963 40.531 26.64 37.464C28.1577 35.867 29.564 34.1677 30.849 32.378C33.0329 32.1543 35.1988 31.7797 37.331 31.257C37.5601 32.2356 37.7373 33.2257 37.862 34.223H37.861ZM41.785 27.423C40.909 27.8 39.95 28.136 38.962 28.452C38.3385 26.3337 37.5725 24.2599 36.669 22.245C37.5629 20.2402 38.319 18.1767 38.932 16.069C39.941 16.385 40.899 16.731 41.796 17.109C45.404 18.648 47.738 20.666 47.738 22.266C47.738 23.866 45.393 25.9 41.786 27.426L41.785 27.423Z" fill="#61DAFB"/>
<path d="M24.99 26.9271C27.5625 26.9271 29.648 24.8416 29.648 22.2691C29.648 19.6965 27.5625 17.6111 24.99 17.6111C22.4174 17.6111 20.332 19.6965 20.332 22.2691C20.332 24.8416 22.4174 26.9271 24.99 26.9271Z" fill="#61DAFB"/>
</svg>
