<svg width="18" height="18" viewBox="0 0 18 18" fill="none" xmlns="http://www.w3.org/2000/svg">
<path d="M7.29858 6.3991L8.72727 2.27685L10.156 6.3991C10.2606 6.70103 10.5451 6.9035 10.8646 6.9035H15.4052L11.7743 9.3766C11.4943 9.5673 11.3769 9.922 11.4879 10.2421L12.8899 14.2873L9.14949 11.7396C8.89475 11.5661 8.5598 11.5661 8.30506 11.7396L4.56468 14.2873L5.96668 10.2421C6.07761 9.922 5.96022 9.5673 5.68025 9.3766L2.04939 6.9035H6.58993C6.90948 6.9035 7.19394 6.70103 7.29858 6.3991Z" stroke="#FBB040"/>
<path d="M7.03125 6.8125L8.75 3.375V11.9688L5.34375 13.5L6.15625 7.28125L7.03125 6.8125Z" fill="#FBB040"/>
<path d="M3.53125 7.0625H6.84375L6.6875 9.71875L4.125 8.3125L3.53125 7.0625Z" fill="#FBB040"/>
</svg>
