<svg width="19" height="19" viewBox="0 0 19 19" fill="none" xmlns="http://www.w3.org/2000/svg">
<path d="M9.75 0.259888C4.78756 0.259888 0.75 4.29745 0.75 9.25989C0.75 14.2223 4.78756 18.2599 9.75 18.2599C14.7124 18.2599 18.75 14.2223 18.75 9.25989C18.75 4.29745 14.7124 0.259888 9.75 0.259888ZM9.75 1.6445C13.9633 1.6445 17.3654 5.04655 17.3654 9.25989C17.3654 13.4732 13.9633 16.8753 9.75 16.8753C5.53666 16.8753 2.13462 13.4732 2.13462 9.25989C2.13462 5.04655 5.53666 1.6445 9.75 1.6445ZM9.72837 3.8945C9.67428 3.90262 9.60667 3.92966 9.55529 3.95941L9.20913 4.15412C9.00631 4.27311 8.9387 4.53272 9.05769 4.73825L12.0216 9.82239L13.1034 9.19498L10.1394 4.11085C10.0502 3.95941 9.89333 3.87287 9.72837 3.8945ZM8.81971 5.582C8.65475 5.56037 8.47626 5.6442 8.38702 5.79835L8.01923 6.44739L9.14423 7.09643L9.51202 6.44739C9.63101 6.24186 9.5634 5.98224 9.36058 5.86325L8.97115 5.64691C8.91977 5.61716 8.8738 5.59012 8.81971 5.582ZM7.93269 6.59883L5.3149 11.0772L6.41827 11.7262L9.03606 7.24787L7.93269 6.59883ZM4.21154 8.63248V9.88729H5.79087L6.52644 8.63248H4.21154ZM8.40865 8.63248L7.71635 9.88729H11.762L11.0697 8.63248H8.40865ZM13.0385 8.63248L13.7091 9.88729H15.2668V8.63248H13.0385ZM13.2332 9.41133L12.1514 10.0387L12.7788 11.1205L13.8606 10.4931L13.2332 9.41133ZM13.7957 10.7743C13.7605 10.7797 13.7254 10.7959 13.6875 10.8176C13.5117 10.9176 13.2575 11.0718 13.1034 11.1637C12.814 11.3368 13.0385 11.8533 13.1034 11.9642C13.4793 12.5943 13.8714 12.5132 14.1635 12.9594C14.323 13.2028 14.2635 13.311 14.3149 13.3921C14.3338 13.4218 14.3987 13.4489 14.4231 13.4137C14.8747 12.789 14.7503 11.7046 14.4231 11.2286C14.2906 11.0339 14.0499 10.731 13.7957 10.7743ZM5.16346 11.3152L4.6226 13.3488C4.61178 13.3867 4.63341 13.4381 4.66587 13.457C4.69832 13.4759 4.747 13.4624 4.77404 13.4354L6.28846 11.9642L5.16346 11.3152Z" fill="#384DFF"/>
</svg>
