<svg width="17" height="18" viewBox="0 0 17 18" fill="none" xmlns="http://www.w3.org/2000/svg">
<path fill-rule="evenodd" clip-rule="evenodd" d="M8.5 17.2599C12.938 17.2599 16.5 13.7336 16.5 9.2956C16.5 4.8576 12.938 1.25989 8.5 1.25989C4.062 1.25989 0.5 4.8576 0.5 9.2956C0.5 13.7336 4.062 17.2599 8.5 17.2599Z" stroke="#384DFF" stroke-linecap="round" stroke-linejoin="round"/>
<path d="M1.5 6.25989H15.5" stroke="#384DFF" stroke-linecap="round" stroke-linejoin="round"/>
<path d="M1.5 12.2599H15.5" stroke="#384DFF" stroke-linecap="round" stroke-linejoin="round"/>
<path fill-rule="evenodd" clip-rule="evenodd" d="M8.5 17.2599C10.719 17.2599 12.5 13.7336 12.5 9.2956C12.5 4.8576 10.719 1.25989 8.5 1.25989C6.281 1.25989 4.5 4.8576 4.5 9.2956C4.5 13.7336 6.281 17.2599 8.5 17.2599Z" stroke="#384DFF" stroke-linecap="round" stroke-linejoin="round"/>
</svg>
