<svg width="48" height="48" viewBox="0 0 48 48" fill="none" xmlns="http://www.w3.org/2000/svg">
<path d="M42 20C35.499 20.3771 29.2466 22.6307 24 26.488C18.7534 22.6307 12.5011 20.3771 6 20V25.92C4.93736 25.9221 3.91906 26.3461 3.16897 27.0989C2.41888 27.8516 1.99841 28.8714 2 29.934V31.942C2 34.16 6 36.358 6 36.358V40.372C11.312 40.7137 16.4349 42.4749 20.834 45.472C21.9448 46.2428 23.0025 47.0874 24 48C24.9975 47.0874 26.0552 46.2428 27.166 45.472C31.5651 42.4749 36.688 40.7137 42 40.372V35.956C43.0626 35.9539 44.081 35.5299 44.831 34.7771C45.5811 34.0244 46.0016 33.0046 46 31.942V29.934C46.0016 28.8714 45.5811 27.8516 44.831 27.0989C44.081 26.3461 43.0626 25.9221 42 25.92V20ZM24 42.844C19.852 39.8041 15.0629 37.7544 10 36.852V24.552C13.8802 25.3337 17.5641 26.8856 20.834 29.116C21.9448 29.8868 23.0025 30.7314 24 31.644C24.9975 30.7314 26.0552 29.8868 27.166 29.116C30.4357 26.8849 34.1197 25.3323 38 24.55V36.852C32.9371 37.7544 28.148 39.8041 24 42.844V42.844ZM22 16H26V18H22V16ZM22 8H26V10H22V8Z" fill="#67A203"/>
<path d="M22 20H26V22H22V20ZM18 10C18.5305 10 19.0392 9.78929 19.4143 9.41422C19.7893 9.03915 20 8.53044 20 8.00001C20.0019 7.73947 19.952 7.48116 19.8531 7.2401C19.7543 6.99903 19.6085 6.78002 19.4243 6.59579C19.24 6.41155 19.021 6.26578 18.78 6.16693C18.5389 6.06809 18.2806 6.01815 18.02 6.02001C17.7587 6.0187 17.4997 6.06887 17.2577 6.16766C17.0158 6.26646 16.7957 6.41194 16.61 6.5958C16.2349 6.96712 16.0227 7.47223 16.02 8.00001C16.0174 8.52779 16.2245 9.03501 16.5958 9.41008C16.9672 9.78515 17.4723 9.99736 18 10V10Z" fill="#67A203"/>
<path d="M30 10C31.1046 10 32 9.10457 32 8C32 6.89543 31.1046 6 30 6C28.8954 6 28 6.89543 28 8C28 9.10457 28.8954 10 30 10Z" fill="#67A203"/>
<path d="M32 16H16C14.4092 15.9984 12.884 15.3658 11.7591 14.2409C10.6342 13.116 10.0016 11.5908 10 10V6C10.0016 4.40919 10.6342 2.88399 11.7591 1.75911C12.884 0.63424 14.4092 0.00158843 16 0L32 0C33.5908 0.00158843 35.116 0.63424 36.2409 1.75911C37.3658 2.88399 37.9984 4.40919 38 6V10C37.9984 11.5908 37.3658 13.116 36.2409 14.2409C35.116 15.3658 33.5908 15.9984 32 16ZM16 4C15.4697 4.00053 14.9613 4.21141 14.5864 4.58637C14.2114 4.96133 14.0005 5.46973 14 6V10C14.0005 10.5303 14.2114 11.0387 14.5864 11.4136C14.9613 11.7886 15.4697 11.9995 16 12H32C32.5303 11.9995 33.0387 11.7886 33.4136 11.4136C33.7886 11.0387 33.9995 10.5303 34 10V6C33.9995 5.46973 33.7886 4.96133 33.4136 4.58637C33.0387 4.21141 32.5303 4.00053 32 4H16Z" fill="#67A203"/>
</svg>
