<svg width="53" height="53" viewBox="0 0 53 53" fill="none" xmlns="http://www.w3.org/2000/svg">
<path d="M10.7656 6.625C10.546 6.625 10.3354 6.71225 10.1801 6.86755C10.0247 7.02286 9.9375 7.23349 9.9375 7.45312V35.6094C9.9375 36.0632 10.3085 36.4375 10.7656 36.4375H16.5625V39.75H10.7656C8.48 39.75 6.625 37.895 6.625 35.6061L6.63163 7.44981C6.63163 5.16419 8.48663 3.30919 10.7723 3.30919H25.6884C27.9741 3.30919 29.8291 5.16419 29.8291 7.45644L29.8224 14.0748C29.8224 14.5319 30.1901 14.9029 30.6506 14.9029H32.2969C33.3664 14.902 34.3948 15.315 35.1666 16.0554C35.9384 16.7957 36.3939 17.806 36.4375 18.8746C34.913 17.9959 33.1018 17.7588 31.4025 18.2154H30.6506C30.1059 18.2172 29.5662 18.1112 29.0627 17.9036C28.5591 17.6959 28.1016 17.3908 27.7165 17.0056C27.3313 16.6205 27.0261 16.1629 26.8185 15.6594C26.6109 15.1558 26.5049 14.6162 26.5066 14.0715L26.5132 7.44981C26.5132 7.23018 26.426 7.01954 26.2707 6.86424C26.1154 6.70893 25.9048 6.62169 25.6851 6.62169H10.7656V6.625ZM35.3775 22.1904C34.7648 21.6214 33.9595 21.3052 33.1233 21.3052C32.2872 21.3052 31.4819 21.6214 30.8692 22.1904L21.4617 30.9255C20.9601 31.3907 20.56 31.9544 20.2864 32.5814C20.0128 33.2084 19.8716 33.8852 19.8717 34.5693V46.3717C19.8717 47.2502 20.2207 48.0928 20.8419 48.714C21.4631 49.3352 22.3057 49.6842 23.1842 49.6842H28.1529C29.0315 49.6842 29.874 49.3352 30.4952 48.714C31.1164 48.0928 31.4654 47.2502 31.4654 46.3717V43.0592H34.7779V46.3717C34.7779 47.2502 35.1269 48.0928 35.7481 48.714C36.3694 49.3352 37.2119 49.6842 38.0904 49.6842H43.0592C43.9377 49.6842 44.7803 49.3352 45.4015 48.714C46.0227 48.0928 46.3717 47.2502 46.3717 46.3717V34.5659C46.3713 33.8824 46.2299 33.2063 45.9563 32.5799C45.6827 31.9535 45.2829 31.3903 44.7817 30.9255L35.3775 22.1937V22.1904ZM23.7142 33.3536L33.1217 24.6185L42.5292 33.3536C42.6961 33.5084 42.8293 33.6959 42.9205 33.9045C43.0117 34.1131 43.0589 34.3383 43.0592 34.5659V46.375H38.0904V43.0625C38.0904 42.184 37.7414 41.3414 37.1202 40.7202C36.499 40.099 35.6565 39.75 34.7779 39.75H31.4654C30.5869 39.75 29.7444 40.099 29.1231 40.7202C28.5019 41.3414 28.1529 42.184 28.1529 43.0625V46.375H23.1842V34.5693C23.1845 34.3416 23.2317 34.1164 23.3229 33.9078C23.4141 33.6992 23.5473 33.5117 23.7142 33.3569V33.3536ZM16.5592 11.5904C16.5592 12.0297 16.3847 12.451 16.0741 12.7616C15.7635 13.0722 15.3422 13.2467 14.9029 13.2467C14.4637 13.2467 14.0424 13.0722 13.7318 12.7616C13.4212 12.451 13.2467 12.0297 13.2467 11.5904C13.2467 11.1512 13.4212 10.7299 13.7318 10.4193C14.0424 10.1087 14.4637 9.93419 14.9029 9.93419C15.3422 9.93419 15.7635 10.1087 16.0741 10.4193C16.3847 10.7299 16.5592 11.1512 16.5592 11.5904ZM14.9029 19.8717C15.3422 19.8717 15.7635 19.6972 16.0741 19.3866C16.3847 19.076 16.5592 18.6547 16.5592 18.2154C16.5592 17.7762 16.3847 17.3549 16.0741 17.0443C15.7635 16.7337 15.3422 16.5592 14.9029 16.5592C14.4637 16.5592 14.0424 16.7337 13.7318 17.0443C13.4212 17.3549 13.2467 17.7762 13.2467 18.2154C13.2467 18.6547 13.4212 19.076 13.7318 19.3866C14.0424 19.6972 14.4637 19.8717 14.9029 19.8717V19.8717ZM16.5592 24.8404C16.5592 25.2797 16.3847 25.701 16.0741 26.0116C15.7635 26.3222 15.3422 26.4967 14.9029 26.4967C14.4637 26.4967 14.0424 26.3222 13.7318 26.0116C13.4212 25.701 13.2467 25.2797 13.2467 24.8404C13.2467 24.4012 13.4212 23.9799 13.7318 23.6693C14.0424 23.3587 14.4637 23.1842 14.9029 23.1842C15.3422 23.1842 15.7635 23.3587 16.0741 23.6693C16.3847 23.9799 16.5592 24.4012 16.5592 24.8404V24.8404ZM21.5279 13.2467C21.9672 13.2467 22.3885 13.0722 22.6991 12.7616C23.0097 12.451 23.1842 12.0297 23.1842 11.5904C23.1842 11.1512 23.0097 10.7299 22.6991 10.4193C22.3885 10.1087 21.9672 9.93419 21.5279 9.93419C21.0887 9.93419 20.6674 10.1087 20.3568 10.4193C20.0462 10.7299 19.8717 11.1512 19.8717 11.5904C19.8717 12.0297 20.0462 12.451 20.3568 12.7616C20.6674 13.0722 21.0887 13.2467 21.5279 13.2467V13.2467ZM23.1842 18.2154C23.1842 18.6547 23.0097 19.076 22.6991 19.3866C22.3885 19.6972 21.9672 19.8717 21.5279 19.8717C21.0887 19.8717 20.6674 19.6972 20.3568 19.3866C20.0462 19.076 19.8717 18.6547 19.8717 18.2154C19.8717 17.7762 20.0462 17.3549 20.3568 17.0443C20.6674 16.7337 21.0887 16.5592 21.5279 16.5592C21.9672 16.5592 22.3885 16.7337 22.6991 17.0443C23.0097 17.3549 23.1842 17.7762 23.1842 18.2154V18.2154ZM21.5279 26.4967C21.9672 26.4967 22.3885 26.3222 22.6991 26.0116C23.0097 25.701 23.1842 25.2797 23.1842 24.8404C23.1842 24.4012 23.0097 23.9799 22.6991 23.6693C22.3885 23.3587 21.9672 23.1842 21.5279 23.1842C21.0887 23.1842 20.6674 23.3587 20.3568 23.6693C20.0462 23.9799 19.8717 24.4012 19.8717 24.8404C19.8717 25.2797 20.0462 25.701 20.3568 26.0116C20.6674 26.3222 21.0887 26.4967 21.5279 26.4967V26.4967Z" fill="#6C3AFF"/>
</svg>
