<svg width="52" height="52" viewBox="0 0 52 52" fill="none" xmlns="http://www.w3.org/2000/svg">
<path d="M6.5 13.5417C6.5 11.6741 7.24189 9.88303 8.56246 8.56246C9.88303 7.24189 11.6741 6.5 13.5417 6.5H38.4583C40.3259 6.5 42.117 7.24189 43.4375 8.56246C44.7581 9.88303 45.5 11.6741 45.5 13.5417V38.4583C45.5 40.3259 44.7581 42.117 43.4375 43.4375C42.117 44.7581 40.3259 45.5 38.4583 45.5H13.5417C11.6741 45.5 9.88303 44.7581 8.56246 43.4375C7.24189 42.117 6.5 40.3259 6.5 38.4583V13.5417ZM13.5417 9.75C12.5361 9.75 11.5716 10.1495 10.8606 10.8606C10.1495 11.5716 9.75 12.5361 9.75 13.5417V14.0833H42.25V13.5417C42.25 12.5361 41.8505 11.5716 41.1394 10.8606C40.4284 10.1495 39.4639 9.75 38.4583 9.75H13.5417ZM9.75 38.4583C9.75 40.5513 11.4487 42.25 13.5417 42.25H38.4583C39.4639 42.25 40.4284 41.8505 41.1394 41.1394C41.8505 40.4284 42.25 39.4639 42.25 38.4583V17.3333H9.75V38.4583ZM14.8417 20.5833H21.9917C23.01 20.5833 23.8333 21.4067 23.8333 22.425V37.1583C23.8333 38.1767 23.01 39 21.9917 39H14.8417C14.3532 39 13.8848 38.806 13.5394 38.4606C13.194 38.1152 13 37.6468 13 37.1583V22.425C13 21.4067 13.8233 20.5833 14.8417 20.5833V20.5833ZM16.25 35.75H20.5833V23.8333H16.25V35.75ZM26 22.2083C26 21.7774 26.1712 21.364 26.476 21.0593C26.7807 20.7545 27.194 20.5833 27.625 20.5833H37.375C37.806 20.5833 38.2193 20.7545 38.5241 21.0593C38.8288 21.364 39 21.7774 39 22.2083C39 22.6393 38.8288 23.0526 38.5241 23.3574C38.2193 23.6621 37.806 23.8333 37.375 23.8333H27.625C27.194 23.8333 26.7807 23.6621 26.476 23.3574C26.1712 23.0526 26 22.6393 26 22.2083ZM27.625 27.0833C27.194 27.0833 26.7807 27.2545 26.476 27.5593C26.1712 27.864 26 28.2774 26 28.7083C26 29.1393 26.1712 29.5526 26.476 29.8574C26.7807 30.1621 27.194 30.3333 27.625 30.3333H35.2083C35.6393 30.3333 36.0526 30.1621 36.3574 29.8574C36.6621 29.5526 36.8333 29.1393 36.8333 28.7083C36.8333 28.2774 36.6621 27.864 36.3574 27.5593C36.0526 27.2545 35.6393 27.0833 35.2083 27.0833H27.625Z" fill="#CA6E59"/>
</svg>
