<svg width="51" height="51" viewBox="0 0 51 51" fill="none" xmlns="http://www.w3.org/2000/svg">
<path d="M25.5 46.75C13.7636 46.75 4.25 37.2364 4.25 25.5C4.25 13.7636 13.7636 4.25 25.5 4.25C37.2364 4.25 46.75 13.7636 46.75 25.5C46.75 37.2364 37.2364 46.75 25.5 46.75ZM25.5 42.5C30.0087 42.5 34.3327 40.7089 37.5208 37.5208C40.7089 34.3327 42.5 30.0087 42.5 25.5C42.5 20.9913 40.7089 16.6673 37.5208 13.4792C34.3327 10.2911 30.0087 8.5 25.5 8.5C20.9913 8.5 16.6673 10.2911 13.4792 13.4792C10.2911 16.6673 8.5 20.9913 8.5 25.5C8.5 30.0087 10.2911 34.3327 13.4792 37.5208C16.6673 40.7089 20.9913 42.5 25.5 42.5V42.5ZM18.0625 29.75H29.75C30.0318 29.75 30.302 29.6381 30.5013 29.4388C30.7006 29.2395 30.8125 28.9693 30.8125 28.6875C30.8125 28.4057 30.7006 28.1355 30.5013 27.9362C30.302 27.7369 30.0318 27.625 29.75 27.625H21.25C19.841 27.625 18.4898 27.0653 17.4935 26.069C16.4972 25.0727 15.9375 23.7215 15.9375 22.3125C15.9375 20.9035 16.4972 19.5523 17.4935 18.556C18.4898 17.5597 19.841 17 21.25 17H23.375V12.75H27.625V17H32.9375V21.25H21.25C20.9682 21.25 20.698 21.3619 20.4987 21.5612C20.2994 21.7605 20.1875 22.0307 20.1875 22.3125C20.1875 22.5943 20.2994 22.8645 20.4987 23.0638C20.698 23.2631 20.9682 23.375 21.25 23.375H29.75C31.159 23.375 32.5102 23.9347 33.5065 24.931C34.5028 25.9273 35.0625 27.2785 35.0625 28.6875C35.0625 30.0965 34.5028 31.4477 33.5065 32.444C32.5102 33.4403 31.159 34 29.75 34H27.625V38.25H23.375V34H18.0625V29.75Z" fill="#FFA800"/>
</svg>
