<svg width="46" height="46" viewBox="0 0 46 46" fill="none" xmlns="http://www.w3.org/2000/svg">
<path d="M40.0966 4.56167C37.9449 4.07976 35.7467 3.83552 33.5416 3.83333C31.4592 3.70111 29.3711 3.98187 27.3975 4.65947C25.4239 5.33707 23.6037 6.39814 22.0416 7.78167C19.9844 9.83889 17.9464 11.8897 15.9275 13.9342C13.6083 13.685 8.10747 13.5508 4.42747 17.2692C4.07049 17.6283 3.87012 18.1141 3.87012 18.6204C3.87012 19.1268 4.07049 19.6126 4.42747 19.9717L26.0858 41.6683C26.4449 42.0253 26.9307 42.2257 27.4371 42.2257C27.9434 42.2257 28.4292 42.0253 28.7883 41.6683C32.5258 37.835 32.4108 32.43 32.1808 30.1683L38.3333 24.035C44.4475 17.9208 41.6683 6.44 41.5533 5.96083C41.4648 5.61513 41.2816 5.301 41.0242 5.0538C40.7669 4.80661 40.4456 4.63617 40.0966 4.56167V4.56167ZM35.5733 21.3325L28.75 28.1175C28.529 28.3406 28.3662 28.6146 28.276 28.9154C28.1858 29.2162 28.1708 29.5346 28.2325 29.8425C28.6465 32.4066 28.2861 35.036 27.1975 37.3942L8.6633 18.8217C11.0589 17.7191 13.7367 17.3844 16.33 17.8633C16.6368 17.9033 16.9487 17.8684 17.2391 17.7616C17.5295 17.6547 17.7897 17.4792 17.9975 17.25C17.9975 17.25 20.6808 14.4708 24.725 10.4267C27.2117 8.42972 30.3601 7.44413 33.5416 7.66667C35.0381 7.67408 36.5316 7.80228 38.0075 8.05C38.4675 10.7908 39.1958 17.71 35.5733 21.3325V21.3325Z" fill="#4385FF"/>
<path d="M30.1493 19.7417C32.2663 19.7417 33.9826 18.0254 33.9826 15.9083C33.9826 13.7912 32.2663 12.075 30.1493 12.075C28.0322 12.075 26.3159 13.7912 26.3159 15.9083C26.3159 18.0254 28.0322 19.7417 30.1493 19.7417Z" fill="#4385FF"/>
<path d="M9.58333 30.6667C5.75 32.5833 5.75 40.25 5.75 40.25C9.29788 40.1488 12.6944 38.7902 15.3333 36.4167L9.58333 30.6667Z" fill="#4385FF"/>
</svg>
