<svg width="69" height="52" viewBox="0 0 69 52" fill="none" xmlns="http://www.w3.org/2000/svg">
<path d="M13 42C5.8201 42 0 36.1799 0 29C0 21.8201 5.8201 16 13 16C20.1799 16 26 21.8201 26 29C26 36.1799 20.1799 42 13 42ZM13 39.4C15.7583 39.4 18.4035 38.3043 20.3539 36.3539C22.3043 34.4035 23.4 31.7583 23.4 29C23.4 26.2417 22.3043 23.5965 20.3539 21.6461C18.4035 19.6957 15.7583 18.6 13 18.6C10.2417 18.6 7.59647 19.6957 5.64609 21.6461C3.69571 23.5965 2.6 26.2417 2.6 29C2.6 31.7583 3.69571 34.4035 5.64609 36.3539C7.59647 38.3043 10.2417 39.4 13 39.4V39.4ZM8.45 31.6H15.6C15.7724 31.6 15.9377 31.5315 16.0596 31.4096C16.1815 31.2877 16.25 31.1224 16.25 30.95C16.25 30.7776 16.1815 30.6123 16.0596 30.4904C15.9377 30.3685 15.7724 30.3 15.6 30.3H10.4C9.53805 30.3 8.7114 29.9576 8.1019 29.3481C7.49241 28.7386 7.15 27.912 7.15 27.05C7.15 26.188 7.49241 25.3614 8.1019 24.7519C8.7114 24.1424 9.53805 23.8 10.4 23.8H11.7V21.2H14.3V23.8H17.55V26.4H10.4C10.2276 26.4 10.0623 26.4685 9.94038 26.5904C9.81848 26.7123 9.75 26.8776 9.75 27.05C9.75 27.2224 9.81848 27.3877 9.94038 27.5096C10.0623 27.6315 10.2276 27.7 10.4 27.7H15.6C16.462 27.7 17.2886 28.0424 17.8981 28.6519C18.5076 29.2614 18.85 30.088 18.85 30.95C18.85 31.812 18.5076 32.6386 17.8981 33.2481C17.2886 33.8576 16.462 34.2 15.6 34.2H14.3V36.8H11.7V34.2H8.45V31.6Z" fill="#00D1FF"/>
<path d="M38.6666 41.1667C41.0598 41.1667 42.9999 39.2266 42.9999 36.8333C42.9999 34.4401 41.0598 32.5 38.6666 32.5C36.2734 32.5 34.3333 34.4401 34.3333 36.8333C34.3333 39.2266 36.2734 41.1667 38.6666 41.1667Z" stroke="#00D1FF" stroke-width="2" stroke-linecap="round" stroke-linejoin="round"/>
<path d="M32.1667 13L40.8333 23.8333H43C44.1493 23.8333 45.2515 24.2899 46.0641 25.1025C46.8768 25.9152 47.3333 27.0174 47.3333 28.1667V36.8333H43M34.3333 36.8333H23.5M23.5 23.8333H40.8333M27.8333 23.8333V13M32.1667 13H23.5M47.3333 17.3333V13M58.1667 26H62.5M54.9167 33.5833L58.1667 36.8333M54.9167 18.4167L58.1667 15.1667" stroke="#00D1FF" stroke-width="2" stroke-linecap="round" stroke-linejoin="round"/>
</svg>
