<svg width="59" height="59" viewBox="0 0 59 59" fill="none" xmlns="http://www.w3.org/2000/svg">
<path d="M25.8124 38.1042H33.1874V31.9583H39.3333V24.5833H33.1874V18.4375H25.8124V24.5833H19.6666V31.9583H25.8124V38.1042ZM29.4999 54.0833C23.8048 52.6493 19.1036 49.3814 15.3965 44.2795C11.6877 39.1793 9.83325 33.5153 9.83325 27.2875V12.2917L29.4999 4.91666L49.1666 12.2917V27.2875C49.1666 33.5153 47.313 39.1793 43.6058 44.2795C39.897 49.3814 35.1951 52.6493 29.4999 54.0833ZM29.4999 48.9208C33.761 47.5687 37.2846 44.8646 40.0708 40.8083C42.8569 36.7521 44.2499 32.2451 44.2499 27.2875V15.6719L29.4999 10.1406L14.7499 15.6719V27.2875C14.7499 32.2451 16.143 36.7521 18.9291 40.8083C21.7152 44.8646 25.2388 47.5687 29.4999 48.9208V48.9208Z" fill="#FF0000"/>
</svg>
